<?xml version="1.0" encoding="UTF-8"?>
<svg version="1.1" xmlns="http://www.w3.org/2000/svg" width="276" height="257">
<path d="M0 0 C0.66 0 1.32 0 2 0 C2.33951619 1.56116819 2.67132544 3.12401338 3 4.6875 C3.185625 5.55761719 3.37125 6.42773438 3.5625 7.32421875 C3.98972047 9.93712964 4.07616201 12.35813038 4 15 C5.155 14.9175 6.31 14.835 7.5 14.75 C26.91940765 14.87156124 44.39224352 24.88414713 58 38 C59.23169922 39.16982422 59.23169922 39.16982422 60.48828125 40.36328125 C65.12870048 45.13193314 68.62819421 50.32721439 71.9375 56.0625 C72.50452637 57.03546021 72.50452637 57.03546021 73.08300781 58.02807617 C75.74188965 62.86323458 77.05418305 67.57663702 78 73 C95.71369355 71.20274857 110.87896803 68.88282926 127 61 C127 64 127 64 125.671875 65.6484375 C118.28463961 72.28493759 109.54606133 75.61348467 100 78 C106.45647766 80.42117912 112.80393545 81.81564256 119.58984375 82.90942383 C124.79159599 83.79159599 124.79159599 83.79159599 127 86 C120.34405447 88.94397591 114.24158565 89.64999003 107 90 C117.62720217 92.91117506 128.03640409 94.89197701 139 96 C138.67 96.99 138.34 97.98 138 99 C129.60182604 100.91958262 121.59599799 101.22588024 113 101 C121.62927587 103.20549731 130.23339098 105.39840797 139 107 C136.00078591 110.28485353 133.93103268 110.95643699 129.41015625 111.16796875 C127.96099788 111.18271334 126.51173282 111.18876584 125.0625 111.1875 C123.93146851 111.1884668 123.93146851 111.1884668 122.77758789 111.18945312 C116.38285524 111.12974634 110.25569265 110.34997606 104 109 C111.12763336 113.35985821 118.11784529 117.19241834 126 120 C126 120.66 126 121.32 126 122 C117.02871235 121.71060362 109.37343977 120.24376495 101 117 C110.18163677 124.36011851 119.38465285 130.80472422 130 136 C130 136.33 130 136.66 130 137 C115.7949284 138.41422173 104.53050997 130.23019683 93 123 C93 125.06861992 95.55406231 126.82314048 96.875 128.1875 C104.27054617 135.46730992 111.94723675 139.56167019 122 142 C122 142.66 122 143.32 122 144 C112.92391546 147.02536151 103.64940815 143.27158244 95.41015625 139.24609375 C92.2461203 137.54128698 89.12089102 135.78211217 86 134 C84.67240176 133.32198442 83.34159322 132.64988449 82 132 C87.03077425 137.28371821 92.27186651 141.9344533 98.09375 146.3359375 C99.03734375 147.15964844 99.03734375 147.15964844 100 148 C100 148.66 100 149.32 100 150 C87.96127857 148.02643911 79.14519796 141.81606941 70 134 C71.23853791 139.79235408 74.23528359 143.59663114 79 147 C79 147.66 79 148.32 79 149 C75.7 148.67 72.4 148.34 69 148 C64.23696178 154.8624827 64.23696178 154.8624827 63.6875 162.75 C64.120625 163.8225 64.55375 164.895 65 166 C64.625 169.9375 64.625 169.9375 64 173 C63.34 173 62.68 173 62 173 C61.34 169.7 60.68 166.4 60 163 C59.69707031 163.88042969 59.39414063 164.76085937 59.08203125 165.66796875 C54.92091388 177.20386643 54.92091388 177.20386643 50 181 C49.01 180.67 48.02 180.34 47 180 C48.00911458 178.2421875 49.01822917 176.484375 50.02734375 174.7265625 C50.71719051 173.50201525 51.37144538 172.25710923 52 171 C51.28714844 171.53109375 50.57429687 172.0621875 49.83984375 172.609375 C44.69784383 176.40185947 39.63983179 179.99208971 34 183 C37.63 182.67 41.26 182.34 45 182 C45 182.66 45 183.32 45 184 C38.42759986 189.00754296 32.01857097 188.54590718 24 188 C21.66525061 187.67673408 19.33167821 187.34472058 17 187 C17.00444122 187.64178192 17.00888245 188.28356384 17.01345825 188.9447937 C17.0579156 195.6614152 17.08795899 202.37799447 17.10986328 209.09472656 C17.11988281 211.5970225 17.13350213 214.09930684 17.15087891 216.6015625 C17.17530561 220.21096673 17.18652394 223.82021531 17.1953125 227.4296875 C17.20563507 228.53738495 17.21595764 229.6450824 17.22659302 230.78634644 C17.22753973 237.43155514 16.59273001 243.54386197 15 250 C14.34 249.67 13.68 249.34 13 249 C12.52929687 246.67431641 12.52929687 246.67431641 12.21875 243.6015625 C12.09886719 242.48136719 11.97898438 241.36117187 11.85546875 240.20703125 C11.67951172 238.43392578 11.67951172 238.43392578 11.5 236.625 C10.64968217 228.33673719 9.63195044 220.17424921 8 212 C5.80027048 226.97688183 3.83047559 241.97362002 2 257 C1.34 257 0.68 257 0 257 C-1.2549258 253.23522259 -1.54882937 249.49660743 -1.9375 245.5703125 C-2.02249756 244.742966 -2.10749512 243.91561951 -2.19506836 243.0632019 C-2.46660315 240.4174519 -2.73368947 237.77128059 -3 235.125 C-3.26665359 232.48589954 -3.53433091 229.84692024 -3.80493164 227.20822144 C-3.97317399 225.566802 -4.13912787 223.92514594 -4.30249023 222.28323364 C-4.69252023 218.46964683 -5.15480676 214.74633774 -6 211 C-9.12273207 227.35239689 -9.12273207 227.35239689 -10.82421875 243.890625 C-11 246 -11 246 -12 249 C-12.66 249 -13.32 249 -14 249 C-14.72779729 245.05320363 -15.14062609 241.28118266 -15.20532227 237.27001953 C-15.2352401 235.61898727 -15.2352401 235.61898727 -15.26576233 233.93460083 C-15.28247482 232.76251068 -15.29918732 231.59042053 -15.31640625 230.3828125 C-15.33718735 229.17051971 -15.35796844 227.95822693 -15.37937927 226.709198 C-15.44460982 222.8478547 -15.50363651 218.98644509 -15.5625 215.125 C-15.60571041 212.50259739 -15.6493255 209.88020141 -15.69335938 207.2578125 C-15.80026404 200.83861118 -15.9020791 194.41934431 -16 188 C-16.95116699 188.07943848 -17.90233398 188.15887695 -18.88232422 188.24072266 C-20.1354541 188.3391748 -21.38858398 188.43762695 -22.6796875 188.5390625 C-24.53956299 188.68915771 -24.53956299 188.68915771 -26.43701172 188.84228516 C-30.86865331 189.03845074 -34.92700704 188.86193964 -39 187 C-41.5625 184.375 -41.5625 184.375 -43 182 C-39.37 182.33 -35.74 182.66 -32 183 C-34.62432046 181.35307452 -37.24941973 179.70741482 -39.875 178.0625 C-40.99455078 177.35963867 -40.99455078 177.35963867 -42.13671875 176.64257812 C-42.85214844 176.19462891 -43.56757812 175.74667969 -44.3046875 175.28515625 C-44.96452637 174.87144775 -45.62436523 174.45773926 -46.30419922 174.03149414 C-48.02251468 172.95427126 -48.02251468 172.95427126 -50 172 C-49.34 172.928125 -48.68 173.85625 -48 174.8125 C-46 178 -46 178 -46 181 C-49.85856594 180.11804207 -51.60658333 178.56200438 -53.75 175.375 C-56.17171893 171.22998891 -56.74502303 167.75957012 -57 163 C-57.66 163 -58.32 163 -59 163 C-59.33 166.3 -59.66 169.6 -60 173 C-60.99 173 -61.98 173 -63 173 C-63.0886836 168.65450348 -63.1347609 164.65134436 -62.25 160.375 C-61.96184705 156.48493511 -62.55136901 154.61809173 -64.609375 151.37890625 C-67.02947393 148.97920142 -69.74310496 149.0626326 -73 149 C-73 148.34 -73 147.68 -73 147 C-72.278125 146.62875 -71.55625 146.2575 -70.8125 145.875 C-66.96400871 143.30933914 -65.22231126 139.98124698 -63 136 C-63.33 135.67 -63.66 135.34 -64 135 C-64.67804688 135.51949219 -65.35609375 136.03898438 -66.0546875 136.57421875 C-75.01965784 143.29173808 -82.61902292 148.44930756 -94 149 C-90.23225289 145.11807874 -86.37202211 141.20468119 -82 138 C-81.34 138 -80.68 138 -80 138 C-79.731875 137.4225 -79.46375 136.845 -79.1875 136.25 C-77.98199197 133.96587952 -76.56864477 132.04568469 -75 130 C-75.91265625 130.63615234 -75.91265625 130.63615234 -76.84375 131.28515625 C-89.778873 139.94027531 -101.19806109 145.43034792 -117 144 C-117.495 143.01 -117.495 143.01 -118 142 C-116.85724609 141.65388672 -116.85724609 141.65388672 -115.69140625 141.30078125 C-106.43492395 138.37707336 -98.62140048 135.30051847 -92 128 C-90.56789394 126.55712622 -89.13003498 125.11994732 -87.6875 123.6875 C-86.99011719 122.99011719 -86.29273438 122.29273437 -85.57421875 121.57421875 C-85.05472656 121.05472656 -84.53523438 120.53523438 -84 120 C-84.680625 120.4125 -85.36125 120.825 -86.0625 121.25 C-92.08485244 124.83778443 -98.16774308 128.18051616 -104.4375 131.3125 C-105.44780273 131.81813477 -105.44780273 131.81813477 -106.47851562 132.33398438 C-111.81160448 134.97122611 -116.34960717 137.14796857 -122.3125 137.625 C-123.63701172 137.73714844 -123.63701172 137.73714844 -124.98828125 137.8515625 C-125.65214844 137.90054688 -126.31601563 137.94953125 -127 138 C-127 137.34 -127 136.68 -127 136 C-125.61941406 135.32517578 -125.61941406 135.32517578 -124.2109375 134.63671875 C-114.53429153 129.76686526 -106.29161965 123.95014035 -98 117 C-98.89460938 117.3609375 -99.78921875 117.721875 -100.7109375 118.09375 C-107.81815808 120.82146792 -114.26987334 123.11799353 -122 122 C-122.66 121.67 -123.32 121.34 -124 121 C-124 120.34 -124 119.68 -124 119 C-123.24976562 118.78085938 -122.49953125 118.56171875 -121.7265625 118.3359375 C-114.46607993 116.08646809 -108.32964443 113.20109143 -102 109 C-103.0209375 109.2165625 -103.0209375 109.2165625 -104.0625 109.4375 C-110.1609253 110.60528357 -116.1149115 111.23713176 -122.3125 111.3125 C-123.60800781 111.32925781 -124.90351562 111.34601563 -126.23828125 111.36328125 C-130.50045348 110.9516696 -133.18643016 109.86978392 -137 108 C-134.12506688 106.08337792 -132.72251099 105.58144242 -129.4375 104.96484375 C-128.55835938 104.79533203 -127.67921875 104.62582031 -126.7734375 104.45117188 C-125.40058594 104.1969043 -125.40058594 104.1969043 -124 103.9375 C-122.1871887 103.59408716 -120.37467446 103.24910147 -118.5625 102.90234375 C-117.75941406 102.75273193 -116.95632812 102.60312012 -116.12890625 102.44897461 C-113.8283111 102.00591241 -113.8283111 102.00591241 -111 101 C-112.32451172 101.03480469 -112.32451172 101.03480469 -113.67578125 101.0703125 C-121.37801243 101.18613553 -128.48696035 100.71726621 -136 99 C-136.33 98.01 -136.66 97.02 -137 96 C-135.93523437 95.90203125 -134.87046875 95.8040625 -133.7734375 95.703125 C-124.10644996 94.73430065 -115.26731171 93.02546151 -106 90 C-107.53720703 89.81824219 -107.53720703 89.81824219 -109.10546875 89.6328125 C-110.46618979 89.46389541 -111.8268645 89.2946048 -113.1875 89.125 C-113.86103516 89.04636719 -114.53457031 88.96773438 -115.22851562 88.88671875 C-119.10327484 88.39528587 -122.45084723 87.64019099 -126 86 C-122.9267471 83.95116473 -121.09571468 83.44964573 -117.52734375 82.74609375 C-115.93116211 82.42415039 -115.93116211 82.42415039 -114.30273438 82.09570312 C-112.63694336 81.76989258 -112.63694336 81.76989258 -110.9375 81.4375 C-108.73779896 81.00112206 -106.53855417 80.56243587 -104.33984375 80.12109375 C-103.36394287 79.9295874 -102.38804199 79.73808105 -101.38256836 79.54077148 C-99.00077153 79.09961425 -99.00077153 79.09961425 -97 78 C-97.81082031 77.78085938 -98.62164062 77.56171875 -99.45703125 77.3359375 C-109.40631152 74.48666748 -119.11800251 71.06854878 -126 63 C-125.67 62.34 -125.34 61.68 -125 61 C-123.99582031 61.47050781 -122.99164063 61.94101562 -121.95703125 62.42578125 C-107.24719828 69.17848795 -93.20362182 72.26134874 -77 72 C-76.57589844 70.96101563 -76.15179688 69.92203125 -75.71484375 68.8515625 C-66.48309021 46.7006749 -51.32084487 29.50270608 -29.05957031 19.82958984 C-20.345951 16.31976547 -11.44075695 14.20031235 -2 15 C-1.93941406 14.25234375 -1.87882813 13.5046875 -1.81640625 12.734375 C-1.73261719 11.74953125 -1.64882812 10.7646875 -1.5625 9.75 C-1.44068359 8.28820312 -1.44068359 8.28820312 -1.31640625 6.796875 C-1.04925416 4.43538247 -0.64628032 2.28098935 0 0 Z M-51.75 47.6875 C-56.80306995 53.5505338 -60.4174047 60.17846363 -64 67 C-64.40347656 67.73476562 -64.80695313 68.46953125 -65.22265625 69.2265625 C-66.20072685 71.13521928 -66.20072685 71.13521928 -66 74 C-64.02 74 -62.04 74 -60 74 C-59.49210937 72.9378125 -58.98421875 71.875625 -58.4609375 70.78125 C-50.08050242 53.4631864 -39.51871682 41.04948767 -21 34 C-16.76759195 32.736281 -12.48642456 31.71846484 -8.17578125 30.76171875 C-5.15568302 30.32991003 -5.15568302 30.32991003 -4 29 C-3.95936168 27.33382885 -3.957279 25.66611905 -4 24 C-22.01867876 23.10934288 -39.88535725 35.27243568 -51.75 47.6875 Z M6 25 C6 26.32 6 27.64 6 29 C6.58265625 29.17015625 7.1653125 29.3403125 7.765625 29.515625 C10.51520282 30.32839329 13.25712596 31.16489924 16 32 C16.96164063 32.2784375 17.92328125 32.556875 18.9140625 32.84375 C38.63322816 38.87916746 50.87070279 50.99038116 60.44921875 68.67578125 C61.33801304 70.4315398 62.17760218 72.21217865 63 74 C64.65 74 66.3 74 68 74 C64.23465821 58.06970781 53.4468996 44.28622049 39.78222656 35.42626953 C29.53450561 29.10605453 18.28678817 23.92221156 6 25 Z M-45.25 56.75 C-49.33691996 62.08293215 -52.23268545 67.89932929 -55 74 C-54.46632813 74.17273438 -53.93265625 74.34546875 -53.3828125 74.5234375 C-47.09892219 76.89348609 -43.40072494 80.36299035 -38.8203125 85.1875 C-35.60837833 88.39053684 -32.23554079 91.24328612 -28.6875 94.0625 C-28.10073486 94.53953369 -27.51396973 95.01656738 -26.90942383 95.50805664 C-23.67114261 98.04459469 -21.13511218 99.61984897 -17 100 C-16.67386719 98.91460937 -16.34773438 97.82921875 -16.01171875 96.7109375 C-15.57059094 95.26553999 -15.12916904 93.82023222 -14.6875 92.375 C-14.47416016 91.66214844 -14.26082031 90.94929688 -14.04101562 90.21484375 C-11.80558772 82.94136192 -9.93039325 77.88102022 -3 74 C0.7692875 72.21953254 3.65406946 71.77479685 7.8125 71.875 C8.78832031 71.89304688 9.76414062 71.91109375 10.76953125 71.9296875 C11.87361328 71.96449219 11.87361328 71.96449219 13 72 C13 72.66 13 73.32 13 74 C13.81984375 74.10957031 14.6396875 74.21914062 15.484375 74.33203125 C17.10085937 74.56986328 17.10085937 74.56986328 18.75 74.8125 C19.81734375 74.96332031 20.8846875 75.11414063 21.984375 75.26953125 C25 76 25 76 27.078125 77.69921875 C27.71234375 78.12847656 28.3465625 78.55773437 29 79 C31.51746723 78.41924294 31.51746723 78.41924294 34 77 C35.32451172 76.36191406 35.32451172 76.36191406 36.67578125 75.7109375 C37.54589844 75.27007812 38.41601562 74.82921875 39.3125 74.375 C40.19550781 73.92898437 41.07851562 73.48296875 41.98828125 73.0234375 C42.65214844 72.68570313 43.31601563 72.34796875 44 72 C44 72.66 44 73.32 44 74 C43.34257812 74.22429687 42.68515625 74.44859375 42.0078125 74.6796875 C37.25252006 76.76707561 33.04476137 79.70585878 28.70703125 82.54296875 C28.01738281 82.98511719 27.32773438 83.42726562 26.6171875 83.8828125 C25.99440918 84.28902832 25.37163086 84.69524414 24.72998047 85.11376953 C23 86 23 86 20 86 C21.98 84.68 23.96 83.36 26 82 C23.5332355 81.11663163 22.36140628 80.8687594 19.859375 81.77734375 C18.81523437 82.35162109 18.81523437 82.35162109 17.75 82.9375 C17.04359375 83.31777344 16.3371875 83.69804688 15.609375 84.08984375 C15.07828125 84.39019531 14.5471875 84.69054687 14 85 C14 85.99 14 86.98 14 88 C13.01 88.495 13.01 88.495 12 89 C11.67164344 92.67271044 11.67164344 92.67271044 13.375 95.8125 C14.93368783 97.1966722 14.93368783 97.1966722 17 97 C17.33 97.99 17.66 98.98 18 100 C27.5671365 98.73350966 34.93890318 90.25453564 41.70898438 83.87988281 C46.33598167 79.57209361 50.94006147 76.01997951 57 74 C54.21339801 62.23434715 43.36014295 50.58366905 33.5 44.125 C7.21375535 28.56559335 -25.0777202 32.85773704 -45.25 56.75 Z M-50 134 C-51.38290887 135.47354349 -52.73177194 136.97916793 -54.0625 138.5 C-54.79597656 139.3353125 -55.52945313 140.170625 -56.28515625 141.03125 C-57.13400391 142.00578125 -57.13400391 142.00578125 -58 143 C-56.92598892 145.91517292 -56.22189824 147.77810176 -54 150 C-53.15488176 148.27656245 -52.32436646 146.54595947 -51.5 144.8125 C-51.0359375 143.84957031 -50.571875 142.88664063 -50.09375 141.89453125 C-49.00407079 139.01077307 -48.77722476 137.04645139 -49 134 C-49.33 134 -49.66 134 -50 134 Z M18 134 C15.71018297 141.13164389 15.94962062 147.57287607 16.375 155 C16.43171875 156.15628906 16.4884375 157.31257813 16.546875 158.50390625 C16.68734184 161.33665423 16.83864855 164.1683778 17 167 C22.5050478 165.34871532 27.24884786 163.54191219 32.0625 160.3125 C33.00222656 159.68988281 33.94195312 159.06726563 34.91015625 158.42578125 C35.94462891 157.72001953 35.94462891 157.72001953 37 157 C35.87802953 154.5610642 34.75256576 152.12384745 33.625 149.6875 C33.30789062 148.99720703 32.99078125 148.30691406 32.6640625 147.59570312 C31.26192277 144.57233933 29.8522913 141.77843695 28 139 C27.01 146.92 26.02 154.84 25 163 C24.34 163 23.68 163 23 163 C23.04640625 162.41476563 23.0928125 161.82953125 23.140625 161.2265625 C23.53696452 151.79934386 21.23832356 143.08319694 19 134 C18.67 134 18.34 134 18 134 Z M57 136 C56.19032562 138.91482778 55.78154007 140.46113217 56.9375 143.3125 C57.288125 143.869375 57.63875 144.42625 58 145 C59.64555699 143.77190909 59.64555699 143.77190909 61 142 C60.99530794 139.89768759 60.99530794 139.89768759 60 138 C59.01 137.34 58.02 136.68 57 136 Z M40 137 C40.33 141.62 40.66 146.24 41 151 C45.23578792 148.89609059 45.23578792 148.89609059 47 145 C46.02471263 143.66382648 45.04466681 142.3311249 44.0625 141 C43.24458984 139.88625 43.24458984 139.88625 42.41015625 138.75 C41.71212891 137.88375 41.71212891 137.88375 41 137 C40.67 137 40.34 137 40 137 Z M-39 138 C-41.7469549 141.03564761 -43.96975757 143.63909046 -44.0625 147.8125 C-43.03687496 150.48919182 -43.03687496 150.48919182 -39 152 C-38.67 147.38 -38.34 142.76 -38 138 C-38.33 138 -38.66 138 -39 138 Z M-17 136 C-17.65192688 138.49854767 -18.29663064 140.9986137 -18.9375 143.5 C-19.11990234 144.19609375 -19.30230469 144.8921875 -19.49023438 145.609375 C-20.70965566 150.39837494 -21.47422365 155.08537471 -22 160 C-23.62875999 155.5517059 -24.50525722 151.31733822 -25.125 146.625 C-25.29257813 145.37976563 -25.46015625 144.13453125 -25.6328125 142.8515625 C-25.75398438 141.91054687 -25.87515625 140.96953125 -26 140 C-27.72451677 142.58677516 -29.1550208 145.11045877 -30.5625 147.875 C-30.99691406 148.71804687 -31.43132812 149.56109375 -31.87890625 150.4296875 C-32.98601382 152.96793413 -33.56512331 155.27346972 -34 158 C-28.76002961 162.10084639 -21.9331315 167 -15 167 C-14.97076441 163.14584948 -14.95312223 159.29172785 -14.9375 155.4375 C-14.92912109 154.35146484 -14.92074219 153.26542969 -14.91210938 152.14648438 C-14.89540782 146.65167389 -15.01417741 141.41038065 -16 136 C-16.33 136 -16.66 136 -17 136 Z M50 150 C47.02324541 153.09327895 47.02324541 153.09327895 46 157 C45.47535156 157.23976562 44.95070312 157.47953125 44.41015625 157.7265625 C41.8983378 159.05371455 39.58075011 160.58709302 37.22705078 162.17407227 C30.75343831 166.51836964 24.54357421 169.79850793 17 172 C17 173.98 17 175.96 17 178 C30.63785335 174.62751566 43.54509665 167.45740716 52 156 C53.24016669 153.3205355 53.24016669 153.3205355 54 151 C52.68 150.67 51.36 150.34 50 150 Z M-50 152 C-50 156.47301652 -49.09781912 157.78451082 -46.1484375 161.00390625 C-38.23581499 168.35545189 -26.25925824 177 -15 177 C-15 175.35 -15 173.7 -15 172 C-16.21623047 171.68869141 -16.21623047 171.68869141 -17.45703125 171.37109375 C-29.39944117 168.04835106 -37.82242607 162.82163976 -46.22265625 153.72265625 C-47.82682659 151.7680089 -47.82682659 151.7680089 -50 152 Z " fill="#000000" transform="translate(137,0)"/>
<path d="M0 0 C2.32631398 2.11067252 3.54388684 3.92806901 4.75 6.8125 C6.8964103 11.30421577 9.88317794 14.23953231 14 17 C17.42232972 18.14077657 20.08673217 18.09815117 23.6875 18.0625 C24.86699219 18.05347656 26.04648438 18.04445312 27.26171875 18.03515625 C28.16535156 18.02355469 29.06898437 18.01195312 30 18 C29 21 29 21 26.77734375 22.1640625 C20.95454564 23.91663465 15.12849946 24.02483307 9.625 21.375 C3.99947566 16.28523989 0.3561249 11.61090505 -1 4 C-0.5703125 1.7265625 -0.5703125 1.7265625 0 0 Z " fill="#000000" transform="translate(76,177)"/>
<path d="M0 0 C0.66 0 1.32 0 2 0 C2.72351679 6.65635448 0.62440526 11.43630258 -3 17 C-6.13007468 20.35966451 -9.22995615 22.8759538 -13.8984375 23.203125 C-15.04570312 23.21859375 -16.19296875 23.2340625 -17.375 23.25 C-19.08816406 23.28867188 -19.08816406 23.28867188 -20.8359375 23.328125 C-24.23902409 22.97521232 -25.62037591 22.41479095 -28 20 C-28 19.34 -28 18.68 -28 18 C-27.13117188 18.03480469 -26.26234375 18.06960937 -25.3671875 18.10546875 C-16.64840513 18.56080536 -16.64840513 18.56080536 -9 15 C-4.87073236 10.46189399 -2.14512756 5.72034015 0 0 Z " fill="#000000" transform="translate(198,177)"/>
</svg>
