<?xml version="1.0" encoding="UTF-8"?>
<!DOCTYPE svg  PUBLIC '-//W3C//DTD SVG 20010904//EN'  'http://www.w3.org/TR/2001/REC-SVG-20010904/DTD/svg10.dtd'>
<svg width="221pt" height="371pt" version="1.0" viewBox="0 0 221 371" xmlns="http://www.w3.org/2000/svg">
<g transform="translate(0 371) scale(.1 -.1)">
<path d="m605 3610 90-90h420 420l180 180h-600-600l90-90z"/>
<path d="m150 3346c0-3 192-337 426-743 235-406 427-742 427-748 0-5-192-342-427-748-234-406-426-740-426-743 0-2 432-4 960-4s960 3 960 6-190 335-422 738c-233 402-423 740-423 751s190 349 423 751c232 403 422 735 422 738s-432 6-960 6-960-2-960-4zm1523-274c-21-38-155-271-298-519-193-335-263-449-271-440-6 7-134 226-284 487-151 261-282 490-293 508l-19 32h602 602l-39-68zm-234-2027 271-470-300-3c-165-1-435-1-599 0l-300 3 292 505c161 278 296 511 301 518 6 10 16 1 36-35 15-26 150-259 299-518z"/>
<path d="m37 2842c344-599 569-980 574-974 3 4 20 59 36 123l31 116-414 716-105 28c-57 15-114 31-127 34-23 6-23 5 5-43z"/>
<path d="m2067 2855c-65-18-120-35-121-37-1-1-94-162-206-357l-203-354 12-46c44-169 54-202 61-194 9 9 590 1013 590 1019s-4 5-133-31z"/>
<path d="m308 1337c-163-281-295-513-294-514s58 13 126 31l124 33 414 716-31 116c-16 64-33 119-36 123-4 4-140-223-303-505z"/>
<path d="m1582 1773c-12-43-27-99-33-124l-12-46 203-354c112-195 205-355 206-357 3-5 248-71 252-68 3 3-575 1006-588 1019-4 5-17-27-28-70z"/>
<path d="m605 100-90-90h600 600l-180 180h-420-420l-90-90z"/>
</g>
</svg>