<?xml version="1.0" encoding="UTF-8"?>
<svg version="1.1" xmlns="http://www.w3.org/2000/svg" width="517" height="482">
<path d="M0 0 C0.99 0 1.98 0 3 0 C3.67511469 3.7068465 4.33858041 7.41568744 5 11.125 C5.28617187 12.69507813 5.28617187 12.69507813 5.578125 14.296875 C5.84882812 15.82441406 5.84882812 15.82441406 6.125 17.3828125 C6.29257812 18.31496582 6.46015625 19.24711914 6.6328125 20.20751953 C7.0221472 23.1684306 7.06158415 26.01701762 7 29 C8.51013672 28.93039063 8.51013672 28.93039063 10.05078125 28.859375 C47.1954882 27.68252186 79.25081959 45.72448312 106 70 C125.01655357 88.53973733 139.98376234 111.17861372 147 137 C177.01623352 135.35325748 209.18072327 133.21285115 235 116 C236.32 116 237.64 116 239 116 C234.45594542 126.73170336 221.2139602 133.54894934 210.90576172 137.87988281 C189.33955316 146.33473374 189.33955316 146.33473374 179 146 C179 146.66 179 147.32 179 148 C180.30936523 148.12834229 181.61873047 148.25668457 182.96777344 148.38891602 C187.56477219 148.90147005 192.00809529 149.75638846 196.515625 150.77734375 C197.29331238 150.94875381 198.07099976 151.12016388 198.87225342 151.29676819 C201.33250726 151.83925734 203.79137796 152.38766623 206.25 152.9375 C216.80091886 155.29462017 227.27776844 157.55367306 238 159 C238 159.66 238 160.32 238 161 C223.12963839 168.20775174 207.02769701 167.5421839 191 166 C194.07999036 167.11364043 197.16456873 168.21403342 200.25 169.3125 C201.10335938 169.62123047 201.95671875 169.92996094 202.8359375 170.24804688 C215.78303382 174.83750266 228.6861979 176.94992343 242.25 178.6875 C243.97794826 178.91407628 245.70581368 179.14128534 247.43359375 179.36914062 C251.62147779 179.92004979 255.810385 180.46241995 260 181 C260 181.99 260 182.98 260 184 C239.71055443 190.95993233 217.74197374 188.97337695 197 185 C216.85895136 193.12804686 237.58448124 198.39805175 259 200 C259 200.99 259 201.98 259 203 C257.65144038 203.65746104 256.29575969 204.30031975 254.9375 204.9375 C253.80634766 205.47697266 253.80634766 205.47697266 252.65234375 206.02734375 C233.22025928 213.15339535 208.20141717 205.84337924 189 201 C202.27629668 210.25669012 215.76797656 219.25502396 231.65625 223.1484375 C232.4296875 223.42945313 233.203125 223.71046875 234 224 C234.33 224.99 234.66 225.98 235 227 C217.7418631 227.8261874 204.1153437 223.93690586 188.5703125 216.609375 C185.34882602 214.86301826 185.34882602 214.86301826 183 215 C201.27838137 231.28058112 220.43524266 245.28050552 243 255 C243 255.66 243 256.32 243 257 C216.33350404 258.27658757 194.78873664 242.66154738 173.64501953 228.36743164 C168.54375077 224.94878327 163.34933392 221.76560951 158 218.75 C156.98462158 218.17548096 156.98462158 218.17548096 155.94873047 217.58935547 C152.67048161 215.64175384 152.67048161 215.64175384 149 215 C149.90621094 215.56847656 150.81242187 216.13695312 151.74609375 216.72265625 C168.19515664 227.11463085 168.19515664 227.11463085 172 231 C172 231.99 172 232.98 172 234 C173.03640625 234.29197266 173.03640625 234.29197266 174.09375 234.58984375 C178.07302514 236.52064795 180.50624887 239.3617921 183.5 242.5625 C196.37210174 255.78304497 210.21631377 262.75639008 228 267 C228 267.99 228 268.98 228 270 C204.414089 275.4023595 180.54035622 261.98014946 161 250 C155.56296279 246.48138605 150.26344474 242.77189637 145 239 C147.48349982 242.19149087 150.03331183 245.12532571 152.9375 247.9375 C155.27133777 250.22851506 157.33897301 252.42817644 159.375 255 C163.11987427 259.27985631 167.51372339 262.52601144 172 266 C174.71624314 268.11508476 177.42220986 270.24276344 180.125 272.375 C181.13892822 273.16124756 181.13892822 273.16124756 182.17333984 273.96337891 C183.81955754 275.26297986 185.41503419 276.62636296 187 278 C187 278.66 187 279.32 187 280 C179.8825326 280.43114748 175.26896842 279.37514011 168.9375 276.1875 C167.70749268 275.58397705 167.70749268 275.58397705 166.45263672 274.96826172 C154.57620326 268.96693351 144.00435873 261.25743667 134.07080078 252.43994141 C131.69536587 250.34041346 130.04887933 249.01629311 127 248 C131.38802936 259.29957743 136.50263343 271.25131672 148 277 C148 277.66 148 278.32 148 279 C140.40429561 279.58179863 134.85884959 278.26889853 128 275 C127.7421875 275.86496094 127.484375 276.72992188 127.21875 277.62109375 C125.97110644 281.08010553 124.40998697 283.92639851 122.5 287.0625 C118.29800034 293.10833193 118.29800034 293.10833193 117.42578125 300 C117.86470703 300.99 117.86470703 300.99 118.3125 302 C120.57952058 308.02177342 122.54990922 316.2569386 120.01171875 322.38671875 C119.67785156 322.91910156 119.34398437 323.45148438 119 324 C118.34 324 117.68 324 117 324 C116.88406494 323.39937744 116.76812988 322.79875488 116.64868164 322.17993164 C116.12393529 319.47333141 115.59329853 316.76791952 115.0625 314.0625 C114.88009766 313.11697266 114.69769531 312.17144531 114.50976562 311.19726562 C114.24389648 309.84858398 114.24389648 309.84858398 113.97265625 308.47265625 C113.72914429 307.22367554 113.72914429 307.22367554 113.48071289 305.94946289 C113.18019737 304.00778088 113.18019737 304.00778088 112 303 C111.81937012 303.589021 111.63874023 304.17804199 111.45263672 304.78491211 C110.60836475 307.50732922 109.74185819 310.22219419 108.875 312.9375 C108.59140625 313.86369141 108.3078125 314.78988281 108.015625 315.74414062 C105.28103246 324.21543273 101.09993756 332.35645989 94 338 C91.1875 338.3125 91.1875 338.3125 89 338 C89.67012361 333.25136544 92.82871238 329.78995237 95.5859375 326.04101562 C98.35533232 322.18299356 100.26167664 318.42431334 102 314 C101.57952393 314.43787842 101.15904785 314.87575684 100.72583008 315.3269043 C96.62035034 319.52758357 92.38958962 323.29564044 87.6875 326.8125 C87.00888916 327.32095459 86.33027832 327.82940918 85.63110352 328.35327148 C75.86078381 335.49239398 65.18763687 341.39851466 54 346 C61.30858765 345.66779147 67.88651624 344.96686811 74.83203125 342.6328125 C77.60164345 341.82438516 80.1353356 341.77384228 83 342 C81.55014826 345.78572399 79.87286992 346.92334897 76.25 348.625 C75.40953125 349.02976562 74.5690625 349.43453125 73.703125 349.8515625 C67.98432858 352.28122456 63.15637269 353.31967925 56.9375 353.25 C56.24333984 353.25773437 55.54917969 353.26546875 54.83398438 353.2734375 C50.6986031 353.25772855 47.77274739 352.56898384 44 351 C41.57007865 350.71664284 39.1300498 350.51196541 36.6875 350.375 C35.43324219 350.30023438 34.17898438 350.22546875 32.88671875 350.1484375 C31.93410156 350.09945313 30.98148437 350.05046875 30 350 C30.24300591 351.22715981 30.24300591 351.22715981 30.49092102 352.47911072 C31.0650042 356.44958172 31.1476528 360.33315117 31.14526367 364.33422852 C31.15030159 365.55778549 31.15030159 365.55778549 31.15544128 366.80606079 C31.16491835 369.49702494 31.16689388 372.18792645 31.16796875 374.87890625 C31.17118751 376.77058436 31.17455203 378.66226222 31.17805481 380.55393982 C31.18404081 384.5257932 31.18589565 388.49762485 31.18530273 392.46948242 C31.18520204 397.49836085 31.19875919 402.52709512 31.21607494 407.55593967 C31.22734221 411.47109075 31.22921737 415.38620883 31.22869301 419.30137444 C31.22985477 421.15125963 31.23417182 423.00114621 31.24202538 424.85101509 C31.35988462 455.52370294 31.35988462 455.52370294 28 468 C27.01 468 26.02 468 25 468 C24.96036133 467.38930664 24.92072266 466.77861328 24.87988281 466.14941406 C23.13014111 440.07729594 19.14525821 414.60207869 14 389 C11.93097344 406.19793189 9.87868652 423.39781699 7.83789062 440.59912109 C7.52589513 443.2283743 7.21376159 445.85761062 6.90136719 448.48681641 C6.44171967 452.35575427 5.98252054 456.22474512 5.5234375 460.09375 C5.38489349 461.25942505 5.24634949 462.4251001 5.10360718 463.62609863 C4.37783452 469.74821829 3.67164999 475.87170018 3 482 C2.34 482 1.68 482 1 482 C-0.78922712 478.87309627 -1.36746529 476.28705727 -1.71435547 472.71362305 C-1.82154907 471.65182327 -1.92874268 470.5900235 -2.03918457 469.49604797 C-2.14742554 468.34621933 -2.2556665 467.19639069 -2.3671875 466.01171875 C-2.4868689 464.81214035 -2.60655029 463.61256195 -2.7298584 462.37663269 C-3.05165273 459.14625355 -3.36706309 455.9153233 -3.68029022 452.68410492 C-4.26075564 446.7318609 -4.86607709 440.78205899 -5.46875 434.83203125 C-5.59937836 433.53910156 -5.73000671 432.24617188 -5.86459351 430.9140625 C-7.29323303 416.90383135 -9.03019873 402.94421255 -11 389 C-16.11995438 412.13470367 -20.82567268 435.51313352 -21.82421875 459.25 C-21.99462618 461.91592953 -22.41153554 464.39736042 -23 467 C-23.99 467 -24.98 467 -26 467 C-28.0015345 453.5256346 -28.26429582 440.28834195 -28.1953125 426.68359375 C-28.19157259 424.48828766 -28.18873026 422.29297988 -28.18673706 420.09767151 C-28.17917749 414.3784202 -28.15959689 408.6592739 -28.1373291 402.94006348 C-28.11670331 397.08049946 -28.10769991 391.22091814 -28.09765625 385.36132812 C-28.07634217 373.90750648 -28.04230144 362.45376204 -28 351 C-30.04136395 350.94548286 -32.08315856 350.90697515 -34.125 350.875 C-35.83042969 350.84019531 -35.83042969 350.84019531 -37.5703125 350.8046875 C-41.0729099 351.00415204 -43.72373714 351.79916759 -47 353 C-56.52827069 353.95282707 -67.27477315 353.17777214 -75.625 348.0625 C-77.94149638 346.05080578 -78.76059198 344.72328644 -80 342 C-78.41642541 342.31127516 -76.83315007 342.62407289 -75.25 342.9375 C-73.92742187 343.19853516 -73.92742187 343.19853516 -72.578125 343.46484375 C-70 344 -70 344 -68.0625 344.5625 C-65.26648073 345.155595 -62.60444821 345.09352661 -59.75 345.0625 C-58.13351563 345.04896484 -58.13351563 345.04896484 -56.484375 345.03515625 C-55.66453125 345.02355469 -54.8446875 345.01195312 -54 345 C-54.74552124 344.62415771 -54.74552124 344.62415771 -55.50610352 344.24072266 C-84.37016344 329.6012167 -84.37016344 329.6012167 -93.63671875 319.47265625 C-95.56029146 317.39475679 -97.74786905 315.70615981 -100 314 C-97.56211974 319.38131173 -95.02581035 324.18010171 -91.25 328.75 C-88.49208847 332.11812189 -87.11516033 334.50874708 -87 339 C-92.27765895 338.02656513 -95.49415781 334.91789686 -99 331 C-103.80648624 323.73113044 -105.90557607 316.26537113 -107.359375 307.73828125 C-107.57078125 306.83464844 -107.7821875 305.93101562 -108 305 C-108.66 304.67 -109.32 304.34 -110 304 C-111.32 310.6 -112.64 317.2 -114 324 C-115.32 323.67 -116.64 323.34 -118 323 C-118.29141848 314.7107633 -118.43073884 307.7191624 -115 300 C-114.43273558 295.53461086 -115.68697038 293.51089583 -118.375 290 C-120.9904672 286.55576335 -122.34361396 284.14096511 -124 280 C-127.96 279.67 -131.92 279.34 -136 279 C-136 278.01 -136 277.02 -136 276 C-133.0173094 274.47551369 -130.181798 273.06059933 -127 272 C-125.92832879 270.17547866 -125.92832879 270.17547866 -125 268 C-124.06865546 266.51694989 -123.13059406 265.03810627 -122.1875 263.5625 C-118.61411739 257.68880721 -116.28908033 251.46209402 -114 245 C-114.433125 245.495 -114.86625 245.99 -115.3125 246.5 C-117 248 -117 248 -120 248 C-120.38865234 249.14275391 -120.38865234 249.14275391 -120.78515625 250.30859375 C-126.32014681 262.57100048 -149.2629502 272.1947407 -161.3125 277.01171875 C-164.994351 278.36565524 -167.77633654 279.11918353 -171.6875 279.0625 C-172.49574219 279.05347656 -173.30398437 279.04445313 -174.13671875 279.03515625 C-175.05904297 279.01775391 -175.05904297 279.01775391 -176 279 C-171.73265363 274.55413914 -167.11775877 270.61686755 -162.375 266.6875 C-161.611875 266.04232422 -160.84875 265.39714844 -160.0625 264.73242188 C-159.32773438 264.12333984 -158.59296875 263.51425781 -157.8359375 262.88671875 C-157.17126465 262.33201904 -156.5065918 261.77731934 -155.82177734 261.20581055 C-154 260 -154 260 -151 260 C-150.75975098 259.27079346 -150.51950195 258.54158691 -150.27197266 257.7902832 C-148.81920072 254.60338675 -147.14472932 252.80183474 -144.6484375 250.35546875 C-143.79765625 249.51435547 -142.946875 248.67324219 -142.0703125 247.80664062 C-140.73613281 246.51016602 -140.73613281 246.51016602 -139.375 245.1875 C-138.4778125 244.30384766 -137.580625 243.42019531 -136.65625 242.50976562 C-134.44411002 240.33292575 -132.22526927 238.16340336 -130 236 C-137.42419292 240.70519945 -137.42419292 240.70519945 -144.80078125 245.484375 C-182.70724985 270.10706145 -182.70724985 270.10706145 -201.87890625 270.1328125 C-202.79994141 270.13410156 -203.72097656 270.13539063 -204.66992188 270.13671875 C-205.62447266 270.13285156 -206.57902344 270.12898438 -207.5625 270.125 C-208.52091797 270.12886719 -209.47933594 270.13273437 -210.46679688 270.13671875 C-211.38654297 270.13542969 -212.30628906 270.13414062 -213.25390625 270.1328125 C-214.51182983 270.13112061 -214.51182983 270.13112061 -215.79516602 270.12939453 C-218 270 -218 270 -221 269 C-221 268.01 -221 267.02 -221 266 C-219.9584375 265.8040625 -218.916875 265.608125 -217.84375 265.40625 C-203.55338108 262.50483134 -187.02607368 256.97290263 -177.5625 245.125 C-174.61066721 241.60525307 -171.44643373 238.65887193 -167.94140625 235.69921875 C-166.14846945 234.12994811 -164.55729207 232.4940728 -162.9375 230.75 C-156.56142881 224.22530244 -148.56996883 219.04664589 -141 214 C-149.09796713 217.80955615 -156.93094348 221.7289277 -164.3125 226.8125 C-186.01957901 241.70212307 -211.88172496 258.46365502 -239 257 C-234.70119632 253.1362979 -230.08960234 251.06765785 -224.875 248.75 C-217.19661389 245.20796707 -210.60468223 241.31725418 -204 236 C-202.59963266 234.91021597 -201.19709517 233.8232176 -199.79296875 232.73828125 C-196.68358089 230.33376256 -193.58075499 227.9212467 -190.484375 225.5 C-184.68243816 220.96583856 -178.84335841 216.48059638 -173 212 C-173.53254395 212.24121582 -174.06508789 212.48243164 -174.61376953 212.73095703 C-192.55676096 220.85105838 -192.55676096 220.85105838 -201 224.5 C-202.0725 224.9640625 -203.145 225.428125 -204.25 225.90625 C-209.5983125 228.03341975 -214.36359924 228.21378776 -220.0625 228.25 C-221.28549805 228.2809375 -221.28549805 228.2809375 -222.53320312 228.3125 C-223.31759766 228.31765625 -224.10199219 228.3228125 -224.91015625 228.328125 C-225.62308838 228.3374707 -226.33602051 228.34681641 -227.07055664 228.35644531 C-229.52936275 227.90220554 -230.41842464 226.88038978 -232 225 C-230.9275 224.608125 -229.855 224.21625 -228.75 223.8125 C-213.28599967 217.96272054 -199.06478648 211.21280606 -186 201 C-187.17175781 201.26554688 -188.34351563 201.53109375 -189.55078125 201.8046875 C-237.3887367 212.58772872 -237.3887367 212.58772872 -257 203 C-257 202.34 -257 201.68 -257 201 C-254.54203163 199.77101581 -252.4755464 199.60606366 -249.7421875 199.2734375 C-230.34653515 196.76022228 -212.08010569 192.54051801 -194 185 C-194.97453125 185.2165625 -195.9490625 185.433125 -196.953125 185.65625 C-216.52630418 189.63603535 -237.90390095 190.36536635 -257 184 C-257 183.01 -257 182.02 -257 181 C-253.81477388 180.23023702 -250.69682894 179.86893548 -247.4375 179.640625 C-226.58853063 178.18001705 -207.64984926 172.94108134 -188 166 C-189.258125 166.09539062 -190.51625 166.19078125 -191.8125 166.2890625 C-207.24722968 167.33784814 -221.01964669 166.25578219 -236 162 C-235.67 161.01 -235.34 160.02 -235 159 C-234.30890137 158.88519287 -233.61780273 158.77038574 -232.90576172 158.65209961 C-214.0660258 155.48844584 -195.55326622 151.52456503 -177 147 C-177.98673706 146.75262085 -177.98673706 146.75262085 -178.9934082 146.50024414 C-198.41997861 141.55195084 -217.2173634 136.18590631 -232 122 C-232.75410156 121.29488281 -233.50820312 120.58976562 -234.28515625 119.86328125 C-236 118 -236 118 -236 116 C-232.28408063 116.60339017 -229.29986308 117.66423129 -225.9296875 119.328125 C-203.8902045 129.96604413 -183.6303017 134.67342167 -159.1875 136.125 C-157.80139858 136.21170237 -156.4153305 136.29893934 -155.02929688 136.38671875 C-151.68648534 136.59637243 -148.34344245 136.80070712 -145 137 C-142.40165218 131.32471281 -139.82555307 125.64478255 -137.37719727 119.90307617 C-130.57806756 104.02078188 -121.99273408 90.51564002 -110 78 C-109.36239746 77.32984863 -108.72479492 76.65969727 -108.06787109 75.96923828 C-98.73468665 66.21634671 -89.51081011 57.12237399 -78 50 C-77.40074707 49.62085449 -76.80149414 49.24170898 -76.18408203 48.85107422 C-54.04113578 35.00956194 -30.02848778 27.961169 -4 29 C-3.96261719 28.33097656 -3.92523438 27.66195313 -3.88671875 26.97265625 C-3.26186463 17.84488533 -1.69117967 8.97707949 0 0 Z M-104 97 C-113.36839001 109.00801782 -120.77993638 122.70156487 -126 137 C-130.62 137.33 -135.24 137.66 -140 138 C-140 138.33 -140 138.66 -140 139 C-131.09 139 -122.18 139 -113 139 C-111.4840625 135.41125 -111.4840625 135.41125 -109.9375 131.75 C-103.64066717 117.24637359 -95.43321431 104.04019757 -84 93 C-83.21882813 92.23300781 -82.43765625 91.46601562 -81.6328125 90.67578125 C-62.24025705 72.40086529 -37.5759103 60.41007529 -10.93359375 57.75 C-8.75418039 57.14373602 -8.75418039 57.14373602 -7.73046875 54.67578125 C-6.83029874 51.37836703 -6.86659713 48.40177323 -7 45 C-44.72299205 41.9523615 -81.07624111 69.90020751 -104 97 Z M10 46 C10.33 48.97 10.66 51.94 11 55 C16.33963372 57.16744895 21.54731897 58.64914579 27.17041016 59.88769531 C59.0871327 67.02621458 86.43355574 85.44582803 104.0625 113.1875 C108.48096398 120.56935147 112.25592912 128.25976369 116 136 C116.33 136.66 116.66 137.32 117 138 C115.35 138 113.7 138 112 138 C112 138.33 112 138.66 112 139 C123.22 139 134.44 139 146 139 C146 138.67 146 138.34 146 138 C140.06 138 134.12 138 128 138 C127.67 136.35 127.34 134.7 127 133 C121.82833467 117.14943794 112.87624757 100.85014593 101 89 C100.34 89 99.68 89 99 89 C98.60554688 88.12214844 98.60554688 88.12214844 98.203125 87.2265625 C88.70965915 69.65748608 60.11345007 56.66395807 42 51 C40.94039063 50.65710937 39.88078125 50.31421875 38.7890625 49.9609375 C28.92080657 46.82206433 20.32673383 45.84738817 10 46 Z M-79.0859375 98.76953125 C-89.29785202 110.66953776 -99.93971992 123.57093568 -104 139 C-102.74896484 139.41958984 -102.74896484 139.41958984 -101.47265625 139.84765625 C-90.23300509 143.85170151 -83.19190851 149.12534708 -75.62890625 158.27734375 C-75.09136719 158.84582031 -74.55382812 159.41429687 -74 160 C-73.34 160 -72.68 160 -72 160 C-71.67 160.99 -71.34 161.98 -71 163 C-68.96407745 164.94406482 -68.96407745 164.94406482 -66.375 166.9375 C-65.38371094 167.72640625 -64.39242187 168.5153125 -63.37109375 169.328125 C-62.82952637 169.75544922 -62.28795898 170.18277344 -61.72998047 170.62304688 C-59.89981076 172.07974419 -58.09145932 173.56070585 -56.28515625 175.046875 C-45.66869731 184.9725774 -45.66869731 184.9725774 -33 190 C-30.38013397 182.43030512 -27.91251047 174.89127622 -25.9375 167.125 C-24.45570723 161.42991696 -22.7459985 156.20641315 -20 151 C-19.46375 149.948125 -18.9275 148.89625 -18.375 147.8125 C-11.40961762 139.56402087 -0.77821247 136.23376594 9.625 135.1875 C14.602639 134.89606915 18.41481468 135.02003361 23 137 C23.33 137.66 23.66 138.32 24 139 C25.010625 138.9175 26.02125 138.835 27.0625 138.75 C35.03753099 138.73568217 44.79517213 140.94045578 51 146 C51.66 146 52.32 146 53 146 C53.33 146.99 53.66 147.98 54 149 C59.16076466 148.50706147 62.72962082 145.8482176 66.9375 143.0625 C71.5276399 140.03240765 75.62936412 137.47083142 81 136 C77.61360004 139.81078256 73.81953887 142.02920115 69.4375 144.5 C61.91090152 148.8151728 54.58156715 153.38343915 47.33374023 158.15234375 C46.57907471 158.63960938 45.82440918 159.126875 45.046875 159.62890625 C44.38526367 160.06275635 43.72365234 160.49660645 43.04199219 160.94360352 C40.71361462 162.14815753 38.57936738 162.59616814 36 163 C38.37355726 160.40076024 40.92328602 158.67899574 43.9375 156.875 C45.21947266 156.09769531 45.21947266 156.09769531 46.52734375 155.3046875 C48.73298246 154.14089077 50.56574338 153.46313003 53 153 C53 152.34 53 151.68 53 151 C45.89850429 150.21094492 40.502789 151.52245269 33.9375 154.0625 C33.1751001 154.33715088 32.4127002 154.61180176 31.62719727 154.89477539 C29.50467642 155.76875456 27.78106584 156.54900695 26 158 C25.02828713 161.56779399 25.02828713 161.56779399 25 165 C23.67151309 166.00642948 22.33849671 167.00692179 21 168 C20.28722257 172.00937306 20.82983339 173.70504454 22.875 177.25 C24.87866405 179.96344026 24.87866405 179.96344026 27 182 C27.99 182 28.98 182 30 182 C30.433125 183.175625 30.433125 183.175625 30.875 184.375 C31.84912254 187.09671632 31.84912254 187.09671632 34 189 C39.03909806 188.76731438 42.59999599 186.74658723 46.6875 184 C47.29762939 183.59773193 47.90775879 183.19546387 48.53637695 182.78100586 C60.38335772 174.83816133 70.9661754 165.09824723 81 155 C88.88082187 147.14943081 97.40159643 142.36008647 108 139 C103.31137892 123.34758318 92.0052588 109.6918254 81 98 C80.47277344 97.40832031 79.94554687 96.81664063 79.40234375 96.20703125 C61.32514219 76.74283213 34.80644502 66.25076186 8.65234375 64.81640625 C-23.90760678 64.18090779 -56.41101674 74.54632295 -79.0859375 98.76953125 Z M-11 174 C-9.57523475 178.0813588 -7.58663399 181.17298478 -5 184.625 C-2.93950544 187.39000188 -0.91310101 190.13034848 1 193 C0.79464347 184.99109531 -5.57987343 179.28851201 -11 174 Z M-125 177 C-125 177.33 -125 177.66 -125 178 C-123.02 178 -121.04 178 -119 178 C-119 177.67 -119 177.34 -119 177 C-120.98 177 -122.96 177 -125 177 Z M123 177 C123 177.33 123 177.66 123 178 C124.98 178 126.96 178 129 178 C129 177.67 129 177.34 129 177 C127.02 177 125.04 177 123 177 Z M2 195 C2 197.64 2 200.28 2 203 C2.33 203 2.66 203 3 203 C3 200.36 3 197.72 3 195 C2.67 195 2.34 195 2 195 Z M77 211 C77 213.64 77 216.28 77 219 C77.99 219.495 77.99 219.495 79 220 C78.67 217.03 78.34 214.06 78 211 C77.67 211 77.34 211 77 211 Z M-92 247 C-92.89513282 248.07122452 -93.74183602 249.18321025 -94.5625 250.3125 C-95.01753906 250.92738281 -95.47257813 251.54226562 -95.94140625 252.17578125 C-97.25095605 254.08093902 -97.25095605 254.08093902 -97 257 C-97.73476562 257.22945313 -98.46953125 257.45890625 -99.2265625 257.6953125 C-102.5504415 259.25894009 -104.09239243 261.01537639 -106.375 263.875 C-107.08398438 264.73867188 -107.79296875 265.60234375 -108.5234375 266.4921875 C-110.20352317 268.81150124 -110.20352317 268.81150124 -109.875 271.0546875 C-108.90348416 273.2145754 -107.86068972 275.22796228 -106.625 277.25 C-105.99464844 278.30960937 -105.99464844 278.30960937 -105.3515625 279.390625 C-104.90554687 279.92171875 -104.45953125 280.4528125 -104 281 C-103.01 281 -102.02 281 -101 281 C-99.69839129 278.00421957 -98.41059356 275.00268393 -97.125 272 C-96.76019531 271.16082031 -96.39539063 270.32164062 -96.01953125 269.45703125 C-92.83452566 261.98674541 -90.6586454 255.19251048 -91 247 C-91.33 247 -91.66 247 -92 247 Z M34 249 C30.14334107 259.07482672 29.46293776 268.03999964 29.6875 278.6875 C29.7044824 280.19448401 29.7200986 281.70148402 29.734375 283.20849609 C29.85421161 293.48605097 30.18255507 303.75274389 31 314 C43.63466247 311.08430866 55.54635434 304.54584997 66 297 C66.99 296.34 67.98 295.68 69 295 C68.3192109 291.04169768 66.33151571 287.87645964 64.375 284.4375 C59.52449587 275.68247282 56.25204285 266.4410869 53 257 C52.67 257 52.34 257 52 257 C51.02921042 261.12782888 50.83401965 265.08017524 50.6875 269.3125 C50.2091513 279.95965487 48.25454065 290.37045031 46.35131836 300.83959961 C45.94649706 302.96421493 45.94649706 302.96421493 46 305 C45.34 305 44.68 305 44 305 C44.05800781 304.35160156 44.11601562 303.70320313 44.17578125 303.03515625 C44.7414048 290.73688413 41.6218962 278.93687413 39 267 C38.7922998 266.04512695 38.58459961 265.09025391 38.37060547 264.10644531 C37.2724827 259.06502241 36.14986721 254.02986607 35 249 C34.67 249 34.34 249 34 249 Z M106 253 C103.76375749 257.47248501 104.40494896 263.78239701 105.671875 268.50390625 C106.37740107 270.36423206 107.17926761 272.18754931 108 274 C110.64752004 271.42215154 112.94432065 269.08351902 115 266 C115 261.40763214 114.21130906 258.81139346 111.0625 255.5625 C108.40988077 252.78609246 108.40988077 252.78609246 106 253 Z M51 254 C52 256 52 256 52 256 Z M74 254 C73.82079809 261.16060966 74.5074413 267.97598857 75.5 275.0625 C75.71462891 276.64708008 75.71462891 276.64708008 75.93359375 278.26367188 C76.28375897 280.84322235 76.63932837 283.42190125 77 286 C78.28187013 285.05599004 79.56135918 284.10874627 80.83984375 283.16015625 C81.55261475 282.63301025 82.26538574 282.10586426 82.99975586 281.56274414 C85.51698136 279.59609451 87.3722884 277.76003271 89 275 C88.83086429 269.8992231 85.85178923 266.99893252 82.625 263.375 C82.13 262.80265625 81.635 262.2303125 81.125 261.640625 C78.83192205 259.00419848 76.48724938 256.452641 74 254 Z M-72 256 C-73.96443035 258.46463253 -75.70876659 261.09540026 -77.5 263.6875 C-78.01175781 264.40873047 -78.52351562 265.12996094 -79.05078125 265.87304688 C-82.75623727 270.97685867 -82.75623727 270.97685867 -84 277 C-82.98828445 279.27271967 -82.98828445 279.27271967 -81.3125 281.25 C-80.79300781 281.93578125 -80.27351562 282.6215625 -79.73828125 283.328125 C-77.78778617 285.20410679 -76.59242797 285.45788908 -74 286 C-73.48722171 282.87696198 -72.99223175 279.75133678 -72.5 276.625 C-72.28537109 275.31982422 -72.28537109 275.31982422 -72.06640625 273.98828125 C-71.12624029 267.94435724 -70.82228697 262.11299899 -71 256 C-71.33 256 -71.66 256 -72 256 Z M-31 251 C-38.69002451 276.57769434 -38.69002451 276.57769434 -42 303 C-46.0570501 289.9622953 -47.02413992 277.05743304 -47.76635742 263.47338867 C-47.91862614 260.8681076 -47.91862614 260.8681076 -49 258 C-49.52787109 259.27230469 -49.52787109 259.27230469 -50.06640625 260.5703125 C-52.7640665 266.97989692 -55.54948093 273.32418929 -58.625 279.5625 C-59.17414063 280.67753906 -59.72328125 281.79257812 -60.2890625 282.94140625 C-62 286 -62 286 -64.2734375 288.65234375 C-66.22914652 290.79821511 -66.22914652 290.79821511 -65.91015625 293.109375 C-61.07813322 303.1467104 -48.13909391 307.64591136 -38.36328125 311.39453125 C-33.29286355 313.27850937 -33.29286355 313.27850937 -28 314 C-27.81466023 292.98247038 -28.3537987 272.00497941 -29 251 C-29.66 251 -30.32 251 -31 251 Z M95 280 C93.52240326 281.79683061 92.0687957 283.61339849 90.625 285.4375 C85.69478133 291.49199784 80.24806799 296.30074886 74 301 C73.12601562 301.68835938 72.25203125 302.37671875 71.3515625 303.0859375 C59.29569792 312.31344675 44.91343481 319.01731304 30 322 C30 325.96 30 329.92 30 334 C55.15613133 330.92749541 79.93529682 314.88891567 95.828125 295.55859375 C97.39897326 293.46936557 98.7107487 291.271538 100 289 C100.98244845 287.65368175 101.97676564 286.31558703 103 285 C101.8562364 284.16382818 100.70992861 283.33113541 99.5625 282.5 C98.92441406 282.0359375 98.28632813 281.571875 97.62890625 281.09375 C96.18863968 279.90709103 96.18863968 279.90709103 95 280 Z M-98 288 C-97.360625 288.928125 -96.72125 289.85625 -96.0625 290.8125 C-94 294 -94 294 -93 297 C-92.278125 297.4125 -91.55625 297.825 -90.8125 298.25 C-88.2384233 299.85164773 -87.23123639 300.82180002 -85.4375 303.125 C-71.97526766 319.39614596 -48.07576903 329.19312573 -28 334 C-28 330.04 -28 326.08 -28 322 C-29.629375 321.814375 -31.25875 321.62875 -32.9375 321.4375 C-55.68435515 317.55258363 -73.77335299 302.5783598 -89 286 C-89.33 285.34 -89.66 284.68 -90 284 C-93.28158484 284 -95.37881108 286.17656423 -98 288 Z M-28 317 C-27 319 -27 319 -27 319 Z M13 351 C13 353.97 13 356.94 13 360 C13.33 360 13.66 360 14 360 C14 357.03 14 354.06 14 351 C13.67 351 13.34 351 13 351 Z " fill="#DFE1E0" transform="translate(257,0)"/>
<path d="M0 0 C2.32579111 0.68527774 3.69008558 1.52142061 5.015625 3.56835938 C6.06332976 5.60764186 7.04397298 7.66615985 8 9.75 C11.58086852 18.59198006 11.58086852 18.59198006 18 25 C18 25.66 18 26.32 18 27 C18.5878125 27.28875 19.175625 27.5775 19.78125 27.875 C21.11146608 28.54947576 22.42962658 29.24996456 23.71875 30 C34.25476763 35.91495727 45.39856137 35.17282303 57 34 C50.40901532 40.95525327 44.55720472 42.30621478 35.0625 42.5625 C27.63253183 42.56939636 22.76090549 40.61313888 17 36 C15.9275 35.236875 14.855 34.47375 13.75 33.6875 C4.2963252 24.44868145 0.50287633 12.99935318 0 0 Z " fill="#E4E4E4" transform="translate(141,333)"/>
<path d="M0 0 C0.99 0 1.98 0 3 0 C2.53573087 13.51023161 -1.49497054 23.68184186 -10.5 33.8125 C-17.44998838 39.89373984 -23.65120216 42.38780076 -32.875 42.3125 C-33.58172852 42.30758545 -34.28845703 42.3026709 -35.01660156 42.29760742 C-40.41991125 42.17605165 -44.28793011 41.62788513 -49 39 C-50.37572823 37.36815215 -51.71625165 35.7051527 -53 34 C-52.35562988 34.02094727 -51.71125977 34.04189453 -51.04736328 34.06347656 C-48.07340668 34.14760998 -45.09970158 34.19896345 -42.125 34.25 C-40.60519531 34.30027344 -40.60519531 34.30027344 -39.0546875 34.3515625 C-29.08243515 34.47941189 -21.17586705 31.97884929 -13.875 25.03125 C-6.98749272 17.56978378 -3.2518942 9.56086865 0 0 Z " fill="#E5E5E5" transform="translate(372,333)"/>
<path d="M0 0 C1.2065625 0.0309375 1.2065625 0.0309375 2.4375 0.0625 C1.11655726 4.02532822 -1.23349724 4.91932542 -4.6875 6.875 C-6.03716818 7.66154362 -7.38607309 8.44939785 -8.734375 9.23828125 C-9.48912109 9.67736816 -10.24386719 10.11645508 -11.02148438 10.56884766 C-16.02693018 13.51113411 -20.9786411 16.54260805 -25.9375 19.5625 C-27.48074951 20.49799683 -27.48074951 20.49799683 -29.05517578 21.45239258 C-30.01407715 22.03529053 -30.97297852 22.61818848 -31.9609375 23.21875 C-32.82380371 23.74275391 -33.68666992 24.26675781 -34.57568359 24.80664062 C-36.48473373 25.91143367 -36.48473373 25.91143367 -37.5625 27.0625 C-39.22867115 27.10313832 -40.89638095 27.105221 -42.5625 27.0625 C-41.2190854 23.03225621 -39.38492085 22.47156257 -35.75 20.375 C-34.69167969 19.75238281 -33.63335937 19.12976563 -32.54296875 18.48828125 C-29.5625 17.0625 -29.5625 17.0625 -25.5625 17.0625 C-25.5625 16.4025 -25.5625 15.7425 -25.5625 15.0625 C-30.79675152 14.19357287 -35.82376559 13.90922675 -41.125 13.9375 C-41.85396484 13.93363281 -42.58292969 13.92976562 -43.33398438 13.92578125 C-47.51900092 13.93331503 -51.4401045 14.24192838 -55.5625 15.0625 C-55.2325 16.0525 -54.9025 17.0425 -54.5625 18.0625 C-61.3125 18.1875 -61.3125 18.1875 -63.5625 17.0625 C-63.5625 16.4025 -63.5625 15.7425 -63.5625 15.0625 C-57.48696183 11.95230164 -51.88262633 11.3542331 -45.125 10.875 C-44.10728516 10.79314453 -43.08957031 10.71128906 -42.04101562 10.62695312 C-39.54880937 10.42804464 -37.05629327 10.24019513 -34.5625 10.0625 C-34.5625 8.7425 -34.5625 7.4225 -34.5625 6.0625 C-30.83370778 6.38211076 -29.71142277 6.90613109 -27.0625 9.6875 C-24.87841571 12.31875235 -24.87841571 12.31875235 -22.421875 12.0234375 C-18.31896012 10.64458906 -14.9316412 8.40582884 -11.3125 6.0625 C-10.5803125 5.5984375 -9.848125 5.134375 -9.09375 4.65625 C-1.85556436 0.04525767 -1.85556436 0.04525767 0 0 Z " fill="#DDDDDD" transform="translate(335.5625,135.9375)"/>
<path d="M0 0 C0.33 0 0.66 0 1 0 C1.33 29.37 1.66 58.74 2 89 C2.66 87.35 3.32 85.7 4 84 C4.33 84 4.66 84 5 84 C6.29018675 94.65892743 6.35712309 105.47284857 4 116 C3.01 116 2.02 116 1 116 C-0.03590199 110.94997778 -0.10251672 106.12583611 0 101 C0.66 101 1.32 101 2 101 C2 102.65 2 104.3 2 106 C2.66 106 3.32 106 4 106 C3.88658363 103.68690295 3.75896193 101.37449815 3.625 99.0625 C3.55539063 97.77472656 3.48578125 96.48695313 3.4140625 95.16015625 C3.20910156 93.59587891 3.20910156 93.59587891 3 92 C2.34 91.67 1.68 91.34 1 91 C0.67 91.99 0.34 92.98 0 94 C0 62.98 0 31.96 0 0 Z " fill="#EBEBEB" transform="translate(230,351)"/>
<path d="M0 0 C0 0.66 0 1.32 0 2 C0.69491043 1.99777939 1.38982086 1.99555878 2.10578918 1.99327087 C8.65353555 1.97323675 15.20127337 1.95800991 21.74904346 1.94818783 C25.1153424 1.94296846 28.48161602 1.93588797 31.84790039 1.92456055 C35.71761755 1.91246101 39.58729866 1.90676396 43.45703125 1.90234375 C44.66647903 1.89718246 45.87592682 1.89202118 47.12202454 1.88670349 C48.80342781 1.88659019 48.80342781 1.88659019 50.51879883 1.88647461 C52.00105705 1.88314369 52.00105705 1.88314369 53.51325989 1.87974548 C56 2 56 2 59 3 C59 3.66 59 4.32 59 5 C52.19041736 4.88076255 45.38095073 4.75600312 38.5715332 4.62768555 C36.26263636 4.58479433 33.95371701 4.54309491 31.64477539 4.50268555 C18.40724871 4.27014604 5.20819367 3.93777139 -8 3 C-6.23110084 -0.53779831 -3.70375662 0 0 0 Z " fill="#CBCECD" transform="translate(99,145)"/>
<path d="M0 0 C4 2 4 2 5.265625 4.6015625 C5.59046875 5.59929687 5.9153125 6.59703125 6.25 7.625 C6.58515625 8.62789063 6.9203125 9.63078125 7.265625 10.6640625 C7.50796875 11.43492187 7.7503125 12.20578125 8 13 C7.04867187 13.73476563 7.04867187 13.73476563 6.078125 14.484375 C3.30212538 17.84479559 3.10558638 21.05704392 2.75 25.25 C2.67265625 25.99507813 2.5953125 26.74015625 2.515625 27.5078125 C2.32801641 29.33699628 2.16186597 31.16835874 2 33 C1.34 33 0.68 33 0 33 C0 22.11 0 11.22 0 0 Z " fill="#D3D4D3" transform="translate(228,255)"/>
<path d="M0 0 C2.475 0.495 2.475 0.495 5 1 C5.12375 1.639375 5.2475 2.27875 5.375 2.9375 C5.58125 3.618125 5.7875 4.29875 6 5 C6.66 5.33 7.32 5.66 8 6 C8 6.99 8 7.98 8 9 C6.77796875 8.75636719 6.77796875 8.75636719 5.53125 8.5078125 C1.48096443 7.92535993 -2.41609586 7.85346799 -6.5 7.875 C-7.60021484 7.86919922 -7.60021484 7.86919922 -8.72265625 7.86328125 C-12.92430334 7.87079761 -16.86141267 8.17490189 -21 9 C-20.67 9.99 -20.34 10.98 -20 12 C-26.75 12.125 -26.75 12.125 -29 11 C-29 10.34 -29 9.68 -29 9 C-22.92446183 5.88980164 -17.32012633 5.2917331 -10.5625 4.8125 C-9.03592773 4.6897168 -9.03592773 4.6897168 -7.47851562 4.56445312 C-4.98630937 4.36554464 -2.49379327 4.17769513 0 4 C0 2.68 0 1.36 0 0 Z " fill="#C9CBCA" transform="translate(301,142)"/>
<path d="M0 0 C0.53625 0.28875 1.0725 0.5775 1.625 0.875 C4.35280484 2.16711808 7.12612718 3.08558592 10 4 C9.67 5.65 9.34 7.3 9 9 C6.69 9 4.38 9 2 9 C0.89155081 12.32534757 1.15545644 14.62182575 2 18 C1.34 18 0.68 18 0 18 C-1.32 15.36 -2.64 12.72 -4 10 C-4.99 10.99 -5.98 11.98 -7 13 C-9.1875 12.6875 -9.1875 12.6875 -11 12 C-10.21625 11.4225 -9.4325 10.845 -8.625 10.25 C-5.94401607 8.25454105 -5.94401607 8.25454105 -4.9375 5.8125 C-4 4 -4 4 -1.875 3.25 C-1.25625 3.1675 -0.6375 3.085 0 3 C0 2.01 0 1.02 0 0 Z " fill="#CBCECD" transform="translate(321,216)"/>
<path d="M0 0 C0.66 0.33 1.32 0.66 2 1 C2.59355614 3.64860427 2.74209269 6.29197322 3 9 C5.64 8.67 8.28 8.34 11 8 C11 9.65 11 11.3 11 13 C9.68 12.67 8.36 12.34 7 12 C7.33 13.010625 7.66 14.02125 8 15.0625 C9.07001321 18.75479911 9.15704155 22.15248207 9 26 C8.34 26 7.68 26 7 26 C6.34 24.35 5.68 22.7 5 21 C4.67 21.66 4.34 22.32 4 23 C3.34 23 2.68 23 2 23 C2 22.01 2 21.02 2 20 C2.66 20 3.32 20 4 20 C3.7215625 19.13375 3.7215625 19.13375 3.4375 18.25 C2.95976454 15.79307475 3.24270636 14.35602466 4 12 C3.01 12 2.02 12 1 12 C0.01 11.67 -0.98 11.34 -2 11 C-1.34 7.37 -0.68 3.74 0 0 Z " fill="#C3C6C6" transform="translate(210,217)"/>
<path d="M0 0 C0.33 0 0.66 0 1 0 C1 8.25 1 16.5 1 25 C1.66 25 2.32 25 3 25 C2.67 30.94 2.34 36.88 2 43 C1.34 43 0.68 43 0 43 C-0.94172009 39.02223795 -1.12890878 35.31348156 -1.1328125 31.23046875 C-1.13410156 29.92916016 -1.13539063 28.62785156 -1.13671875 27.28710938 C-1.13462402 26.61317139 -1.1325293 25.9392334 -1.13037109 25.24487305 C-1.12504357 23.20418774 -1.13031624 21.16372517 -1.13671875 19.12304688 C-1.13033429 12.65877814 -1.03039589 6.38681896 0 0 Z " fill="#EAEBEB" transform="translate(245,330)"/>
<path d="M0 0 C0.66 0 1.32 0 2 0 C2.103125 0.763125 2.20625 1.52625 2.3125 2.3125 C3.06227192 5.24342658 3.83473267 6.01517162 6 8 C6.33 8.99 6.66 9.98 7 11 C6.071875 11.103125 5.14375 11.20625 4.1875 11.3125 C0.96745642 12.0070192 -0.02579865 12.47740939 -2 15 C-2 13.35 -2 11.7 -2 10 C-4.07309734 8.88941214 -5.88618411 8.02601506 -8.1875 7.5 C-8.785625 7.335 -9.38375 7.17 -10 7 C-10.33 6.34 -10.66 5.68 -11 5 C-9.02 5 -7.04 5 -5 5 C-4.67 4.01 -4.34 3.02 -4 2 C-3.01 2 -2.02 2 -1 2 C-0.67 1.34 -0.34 0.68 0 0 Z " fill="#C9CCCB" transform="translate(198,217)"/>
<path d="M0 0 C8.70498897 3.24007034 17.40080002 6.48590385 26 10 C25.67 10.66 25.34 11.32 25 12 C23.01432292 11.67447917 21.02864583 11.34895833 19.04296875 11.0234375 C16.68244176 10.80422152 16.68244176 10.80422152 14 13 C11.3125 12.625 11.3125 12.625 9 12 C8.61781233 10.34385343 8.28604898 8.67542976 8 7 C8.33 6.67 8.66 6.34 9 6 C4.545 4.02 4.545 4.02 0 2 C0 1.34 0 0.68 0 0 Z " fill="#D1D3D2" transform="translate(420,180)"/>
<path d="M0 0 C1.32 1.32 2.64 2.64 4 4 C3.34 5.32 2.68 6.64 2 8 C1.34 8 0.68 8 0 8 C0 10.64 0 13.28 0 16 C-0.66 16 -1.32 16 -2 16 C-2.33 16.99 -2.66 17.98 -3 19 C-4.32796291 19.35412344 -5.66216607 19.68521554 -7 20 C-8.73026102 21.47890069 -8.73026102 21.47890069 -10 23 C-10.99 22.34 -11.98 21.68 -13 21 C-12.34 19.02 -11.68 17.04 -11 15 C-8.37886292 15 -6.49064888 15.31292445 -4 16 C-3.03929566 13.11788698 -2.89418117 11.30149956 -2.9375 8.3125 C-2.94652344 7.50425781 -2.95554687 6.69601563 -2.96484375 5.86328125 C-2.97644531 5.24839844 -2.98804688 4.63351563 -3 4 C-2.67 4.66 -2.34 5.32 -2 6 C-1.01 5.67 -0.02 5.34 1 5 C0.67 3.35 0.34 1.7 0 0 Z " fill="#CACDCC" transform="translate(352,198)"/>
<path d="M0 0 C0.66 0 1.32 0 2 0 C2 8.58 2 17.16 2 26 C0 25 0 25 -0.6171875 23.43359375 C-1.16073851 19.97816236 -1.14407607 16.550242 -1.125 13.0625 C-1.12886719 12.35931641 -1.13273437 11.65613281 -1.13671875 10.93164062 C-1.12965265 7.16187488 -0.903467 3.66406062 0 0 Z " fill="#D6D7D6" transform="translate(286,296)"/>
<path d="M0 0 C0 1.32 0 2.64 0 4 C-1.93742341 4.02703381 -3.87495479 4.04641125 -5.8125 4.0625 C-6.89144531 4.07410156 -7.97039063 4.08570313 -9.08203125 4.09765625 C-12 4 -12 4 -15 3 C-15 2.01 -15 1.02 -15 0 C-9.38963576 -1.62077189 -5.53754923 -2.55579195 0 0 Z " fill="#E9E9E8" transform="translate(51,266)"/>
<path d="M0 0 C1.010625 0.33 2.02125 0.66 3.0625 1 C6.75479911 2.07001321 10.15248207 2.15704155 14 2 C12.49200696 5.01598607 10.32266466 5.13739043 7.1875 6.1875 C5.60001953 6.73470703 5.60001953 6.73470703 3.98046875 7.29296875 C1.08275549 7.98036862 -0.26601422 8.03931179 -3 7 C-2.67 6.01 -2.34 5.02 -2 4 C-2.33 3.34 -2.66 2.68 -3 2 C-2.01 2 -1.02 2 0 2 C0 1.34 0 0.68 0 0 Z " fill="#D3D6D5" transform="translate(90,161)"/>
<path d="M0 0 C2.87579981 4.31369972 4 7.80734761 4 13 C2.35 13 0.7 13 -1 13 C-2.91903365 10.1778917 -2.99110212 8.87098068 -2.75 5.375 C-2 2 -2 2 0 0 Z " fill="#CCCFCE" transform="translate(183,209)"/>
<path d="M0 0 C1.65 0.33 3.3 0.66 5 1 C5.12375 1.639375 5.2475 2.27875 5.375 2.9375 C5.58125 3.618125 5.7875 4.29875 6 5 C6.66 5.33 7.32 5.66 8 6 C8 6.99 8 7.98 8 9 C2.72 8.34 -2.56 7.68 -8 7 C-8 6.67 -8 6.34 -8 6 C-5.69 5.34 -3.38 4.68 -1 4 C-0.67 2.68 -0.34 1.36 0 0 Z " fill="#D0D1D0" transform="translate(301,142)"/>
<path d="M0 0 C3.96 0 7.92 0 12 0 C8.91709845 5.6373057 8.91709845 5.6373057 7 8 C4.1875 8.5 4.1875 8.5 2 8 C1.67 6.68 1.34 5.36 1 4 C1.99 4 2.98 4 4 4 C4 3.01 4 2.02 4 1 C2.68 0.67 1.36 0.34 0 0 Z " fill="#D1D3D2" transform="translate(260,135)"/>
<path d="M0 0 C4.28342007 0.47593556 6.15573389 2.94761685 9 6 C9.928125 6.928125 10.85625 7.85625 11.8125 8.8125 C12.534375 9.534375 13.25625 10.25625 14 11 C13.67 11.99 13.34 12.98 13 14 C11.2925002 12.71937515 9.62626404 11.38232443 8 10 C8 9.34 8 8.68 8 8 C7.4225 7.7525 6.845 7.505 6.25 7.25 C3.67060021 5.81700012 1.93878408 4.21575324 0 2 C0 1.34 0 0.68 0 0 Z " fill="#E8E9E9" transform="translate(358,68)"/>
<path d="M0 0 C0.99 0.33 1.98 0.66 3 1 C3.98248524 5.0527516 4.08159574 8.83861737 4 13 C3.34 13 2.68 13 2 13 C1.34 11.35 0.68 9.7 0 8 C-0.33 8.66 -0.66 9.32 -1 10 C-1.66 10 -2.32 10 -3 10 C-3 9.01 -3 8.02 -3 7 C-2.34 7 -1.68 7 -1 7 C-1.20625 6.401875 -1.4125 5.80375 -1.625 5.1875 C-2 3 -2 3 0 0 Z " fill="#CBCFCF" transform="translate(215,230)"/>
<path d="M0 0 C4.67692308 1.47692308 4.67692308 1.47692308 6.3125 4.125 C6.539375 4.74375 6.76625 5.3625 7 6 C6.01 5.67 5.02 5.34 4 5 C1.14677819 5.20773829 -1.66690045 5.57594866 -4.50390625 5.94140625 C-5.32761719 5.96074219 -6.15132813 5.98007813 -7 6 C-7.66 5.34 -8.32 4.68 -9 4 C-8.67 3.01 -8.34 2.02 -8 1 C-7.13375 1.5259375 -7.13375 1.5259375 -6.25 2.0625 C-3.64198224 3.14917407 -2.60582371 2.93065133 0 2 C0 1.34 0 0.68 0 0 Z " fill="#CCCECD" transform="translate(367,183)"/>
<path d="M0 0 C0.66 0.33 1.32 0.66 2 1 C2 3.31 2 5.62 2 8 C0.02 8 -1.96 8 -4 8 C-4.04898437 8.78246094 -4.09796875 9.56492188 -4.1484375 10.37109375 C-4.22320312 11.38300781 -4.29796875 12.39492187 -4.375 13.4375 C-4.44460938 14.44683594 -4.51421875 15.45617187 -4.5859375 16.49609375 C-4.72257812 17.32238281 -4.85921875 18.14867187 -5 19 C-5.66 19.33 -6.32 19.66 -7 20 C-7.08333357 15.1666528 -6.95261487 10.76307437 -6 6 C-4.02 5.67 -2.04 5.34 0 5 C0 3.35 0 1.7 0 0 Z " fill="#BFC2C1" transform="translate(306,221)"/>
<path d="M0 0 C0.66 0.33 1.32 0.66 2 1 C2.625 3.5625 2.625 3.5625 3 6 C2.37609375 6.22429687 1.7521875 6.44859375 1.109375 6.6796875 C-1.72331159 8.45273948 -1.93255443 9.93696227 -2.75 13.125 C-2.99234375 14.03507813 -3.2346875 14.94515625 -3.484375 15.8828125 C-3.73960937 16.93082031 -3.73960937 16.93082031 -4 18 C-4.99 18 -5.98 18 -7 18 C-6.02216461 15.37449704 -5.0427937 12.74958495 -4.0625 10.125 C-3.78470703 9.37863281 -3.50691406 8.63226563 -3.22070312 7.86328125 C-1.11328125 2.2265625 -1.11328125 2.2265625 0 0 Z " fill="#CFD3D1" transform="translate(194,233)"/>
<path d="M0 0 C0.680625 0.556875 1.36125 1.11375 2.0625 1.6875 C1.7325 2.3475 1.4025 3.0075 1.0625 3.6875 C0.485 3.48125 -0.0925 3.275 -0.6875 3.0625 C-2.93529708 2.45692778 -2.93529708 2.45692778 -4.75 3.625 C-7.83147134 5.12171465 -10.56314522 4.81728288 -13.9375 4.6875 C-9.81376462 1.22356228 -5.29698217 -2.36673671 0 0 Z " fill="#E8EAE9" transform="translate(79.9375,195.3125)"/>
<path d="M0 0 C0.66 0.33 1.32 0.66 2 1 C1.67 2.65 1.34 4.3 1 6 C1.66 6.33 2.32 6.66 3 7 C2.14148438 6.69255859 2.14148438 6.69255859 1.265625 6.37890625 C-1.59910136 5.89980546 -2.73474736 6.55411105 -5.25 7.9375 C-6.30960938 8.50791016 -6.30960938 8.50791016 -7.390625 9.08984375 C-7.92171875 9.39019531 -8.4528125 9.69054687 -9 10 C-7.61811547 6.78956118 -6.07578097 4.95063635 -3.375 2.75 C-2.74335938 2.22921875 -2.11171875 1.7084375 -1.4609375 1.171875 C-0.73777344 0.59179688 -0.73777344 0.59179688 0 0 Z " fill="#C9CDCC" transform="translate(175,211)"/>
<path d="M0 0 C2.0625 0.4375 2.0625 0.4375 4 1 C3.34 1 2.68 1 2 1 C2.495 1.78375 2.99 2.5675 3.5 3.375 C5 6 5 6 5 8 C3.02 8.33 1.04 8.66 -1 9 C-1.09765625 2.84765625 -1.09765625 2.84765625 -1 1 C-0.67 0.67 -0.34 0.34 0 0 Z " fill="#D4D7D6" transform="translate(302,228)"/>
<path d="M0 0 C3.96 0 7.92 0 12 0 C8 4 8 4 4.25 4.25 C3.1775 4.1675 2.105 4.085 1 4 C1.66 3.67 2.32 3.34 3 3 C2.01 2.67 1.02 2.34 0 2 C0 1.34 0 0.68 0 0 Z " fill="#E8E7E7" transform="translate(505,201)"/>
<path d="M0 0 C0.99 0 1.98 0 3 0 C3 3.63 3 7.26 3 11 C2.01 11 1.02 11 0 11 C-0.84098656 6.98195309 -1.05404945 3.98196457 0 0 Z " fill="#D2D2D2" transform="translate(257,0)"/>
<path d="M0 0 C0.66 0 1.32 0 2 0 C2.125 7.625 2.125 7.625 1 11 C-0.65 11 -2.3 11 -4 11 C-2.68 10.67 -1.36 10.34 0 10 C-0.33 9.34 -0.66 8.68 -1 8 C-1.23076923 2.46153846 -1.23076923 2.46153846 0 0 Z " fill="#D4D7D5" transform="translate(218,215)"/>
<path d="M0 0 C2.12508244 3.18762365 2.5020163 5.26512223 3 9 C1.35 8.67 -0.3 8.34 -2 8 C-2.125 5.125 -2.125 5.125 -2 2 C-1.34 1.34 -0.68 0.68 0 0 Z " fill="#C3C5C4" transform="translate(183,209)"/>
<path d="M0 0 C1.98 0 3.96 0 6 0 C6 0.99 6 1.98 6 3 C5.34 3 4.68 3 4 3 C4 3.66 4 4.32 4 5 C2.35 4.67 0.7 4.34 -1 4 C-0.67 2.68 -0.34 1.36 0 0 Z " fill="#D1D3D2" transform="translate(212,346)"/>
<path d="M0 0 C0.66 0 1.32 0 2 0 C3.625 2 3.625 2 5 4 C2.36 4.33 -0.28 4.66 -3 5 C-1.125 1.125 -1.125 1.125 0 0 Z " fill="#D6D7D6" transform="translate(379,172)"/>
<path d="M0 0 C2.3431213 0.25561323 4.67843403 0.59270772 7 1 C7.33 1.66 7.66 2.32 8 3 C6.02 3.66 4.04 4.32 2 5 C1.34 3.35 0.68 1.7 0 0 Z " fill="#E9EBEA" transform="translate(423,157)"/>
<path d="M0 0 C0.99 0.33 1.98 0.66 3 1 C2.75 2.875 2.75 2.875 2 5 C-0.0625 6.25 -0.0625 6.25 -2 7 C-2 6.01 -2 5.02 -2 4 C-1.34 4 -0.68 4 0 4 C0 2.68 0 1.36 0 0 Z " fill="#E7E8E7" transform="translate(98,200)"/>
</svg>
