<svg version="1.1" id="Layer_1" xmlns="http://www.w3.org/2000/svg" xmlns:xlink="http://www.w3.org/1999/xlink" x="0px" y="0px"
	 width="100%" viewBox="0 0 517 482" enable-background="new 0 0 517 482" xml:space="preserve">
<path fill="#000000" opacity="1.000000" stroke="none" 
	d="
M518.000000,177.000000 
	C518.000000,279.333313 518.000000,381.166626 518.000000,482.999969 
	C431.833374,483.000000 345.666748,483.000000 259.500122,483.000000 
	C173.333481,483.000000 87.166840,483.000000 1.000147,483.000000 
	C1.000098,322.333435 1.000098,161.666870 1.000049,1.000233 
	C173.333191,1.000156 345.666382,1.000156 517.999756,1.000078 
	C518.000000,59.500000 518.000000,118.000000 518.000000,177.000000 
M157.183685,320.699585 
	C156.648880,319.546692 156.114075,318.393829 155.579269,317.240936 
	C155.262177,317.404541 154.945084,317.568176 154.627991,317.731812 
	C155.385712,319.185699 156.143417,320.639587 156.972580,322.833252 
	C158.894958,328.655029 162.662766,333.095428 167.801193,337.248779 
	C168.141602,337.375977 168.481995,337.503174 168.822388,337.630402 
	C168.581970,337.055054 168.341553,336.479736 168.025909,335.199280 
	C164.555008,330.545349 161.084122,325.891449 157.183685,320.699585 
M252.943207,45.018414 
	C252.621033,46.594139 252.144974,48.156120 252.002792,49.747921 
	C251.315857,57.438286 251.350876,57.456192 243.893539,59.018726 
	C241.996277,59.416256 240.052780,59.599560 238.163086,60.025742 
	C215.372055,65.165855 194.867249,74.982277 177.689316,90.921402 
	C163.592621,104.001503 153.017166,119.644051 145.678497,139.450485 
	C149.287598,137.833206 152.655380,137.408936 153.944046,135.546280 
	C158.058151,129.599686 161.256271,123.030006 165.068268,116.861725 
	C175.476791,100.019447 189.951065,87.302933 207.221375,78.140099 
	C228.380920,66.913795 251.006714,62.272934 275.056641,65.979965 
	C290.362915,68.339264 304.653564,73.417389 318.047760,81.047020 
	C330.301605,88.027084 340.504456,97.716316 349.356903,108.362938 
	C355.853455,116.176155 360.285919,125.771378 365.186066,134.817383 
	C367.493561,139.077225 370.157990,139.190170 374.152771,137.493744 
	C371.294067,131.948318 368.762482,126.563477 365.818909,121.414124 
	C356.073486,104.365761 343.377930,89.931351 326.969269,79.005707 
	C310.335541,67.930183 292.076630,61.128189 272.152252,58.964649 
	C269.743683,58.703106 268.008698,58.148708 267.904724,54.953300 
	C267.785522,51.290581 266.795288,47.656204 266.824493,44.000195 
	C267.251648,43.986053 267.678802,43.971916 268.829498,44.319866 
	C273.149048,44.891830 277.523346,45.199825 281.778564,46.082111 
	C298.895630,49.631187 315.115875,55.449234 329.945282,64.969917 
	C343.791321,73.859276 355.964386,84.380211 366.150330,97.442902 
	C375.189087,109.034409 381.726807,121.785606 387.025482,135.336487 
	C387.428223,136.366516 388.498383,137.836868 389.325989,137.882782 
	C393.843262,138.133392 398.381714,138.002060 403.372437,138.002060 
	C400.525604,131.104828 398.323608,124.877228 395.450653,118.976265 
	C386.745789,101.096611 375.809967,84.870491 360.997955,71.267334 
	C350.743774,61.849998 340.002411,53.365963 327.543030,47.087265 
	C308.194000,37.336689 287.996399,30.934202 265.569733,31.179527 
	C265.101288,31.446329 264.632812,31.713131 263.803467,31.239437 
	C262.434937,22.972900 261.066406,14.706365 259.697845,6.439828 
	C258.657440,8.791387 258.392273,11.159806 257.985138,13.503560 
	C256.971527,19.338387 255.893219,25.161982 254.198105,30.999475 
	C253.769730,31.011181 253.341370,31.022888 252.004440,30.971664 
	C246.258179,31.338593 240.416794,31.171181 234.783722,32.173912 
	C218.697281,35.037434 203.356461,40.455784 189.155365,48.464470 
	C168.314545,60.217640 150.739532,75.640747 137.434875,95.863121 
	C128.824982,108.949699 121.254036,122.385216 116.880753,137.808838 
	C121.952072,137.808838 126.724152,137.808838 131.692307,137.808838 
	C137.135864,121.492767 145.675888,106.952133 156.715118,93.630013 
	C170.833298,76.592209 187.984085,63.783241 208.161179,55.167568 
	C216.484192,51.613617 225.436325,49.441978 234.225128,47.103065 
	C239.756058,45.631149 245.514816,45.015324 251.986374,44.065407 
	C252.258224,44.078789 252.530075,44.092175 252.943207,45.018414 
M247.372559,318.038513 
	C247.372559,318.038513 247.828491,318.013702 247.980042,318.938385 
	C248.644165,342.285187 249.090759,365.641113 250.067825,388.974823 
	C250.529037,399.989044 251.899506,410.971985 253.051331,421.948822 
	C254.602234,436.728790 256.332428,451.489990 258.002472,466.257355 
	C258.425446,469.997620 258.912018,473.730743 259.414490,477.836060 
	C260.643860,466.822845 261.825195,456.251648 263.003448,445.680115 
	C264.017914,436.578735 265.104980,427.484619 266.024689,418.373627 
	C267.723846,401.541809 269.900604,384.730682 270.798370,367.853485 
	C271.644592,351.944977 271.100372,335.962524 271.500000,320.010223 
	C271.500000,320.010223 271.832123,320.011108 271.980347,320.936584 
	C271.983185,339.760010 271.978546,358.583466 272.003082,377.406860 
	C272.005035,378.888733 272.014160,380.416321 272.349579,381.845245 
	C278.337067,407.352081 284.867493,432.769989 284.052612,459.311310 
	C284.017853,460.444366 284.737488,461.600586 285.105713,462.746033 
	C286.301300,456.437683 286.974915,450.361176 286.993225,444.282684 
	C287.099060,409.134949 286.988281,373.986572 287.096863,338.838837 
	C287.124451,329.902252 287.757996,320.969177 287.980988,312.031189 
	C288.373901,296.278320 288.710480,280.523529 288.929047,264.767548 
	C288.950989,263.185333 287.188782,261.285095 287.650238,260.056732 
	C289.094940,256.211121 291.207947,252.616608 292.982513,249.783096 
	C293.258270,251.374176 293.464050,252.981110 293.820648,254.553864 
	C297.358032,270.155304 300.920349,285.751099 304.556976,301.705414 
	C306.031067,292.628784 308.131866,283.494476 308.823486,274.254730 
	C309.396393,266.601227 308.307220,258.823303 308.155884,250.666183 
	C308.307770,250.369171 308.537079,250.155029 308.995667,250.804138 
	C313.456360,266.338989 318.673828,281.529205 329.394592,294.266876 
	C319.292908,303.768433 307.899017,310.039734 295.231781,313.944214 
	C288.995972,315.866302 287.780182,317.437622 290.339600,322.950562 
	C300.438141,319.179901 310.644806,315.949432 319.918854,309.862183 
	C331.783813,302.074402 341.869659,292.640106 350.906982,281.843964 
	C351.821320,280.751648 354.719299,280.056061 355.874329,280.685486 
	C358.481415,282.106201 360.573425,284.472076 363.237061,286.765106 
	C356.761780,293.741516 350.794098,300.890686 344.081970,307.254608 
	C329.589203,320.995422 312.358612,329.952148 293.083984,335.143890 
	C291.480865,335.575684 289.445007,337.609772 289.184082,339.163696 
	C288.597504,342.657379 289.000153,346.317139 289.000153,350.273956 
	C299.227692,349.180267 308.370148,346.508545 317.134583,342.445374 
	C336.313416,333.554016 352.959900,321.241302 366.440948,304.948883 
	C370.612335,299.907593 373.691711,293.962738 377.206512,288.486359 
	C377.206512,288.486359 377.192352,288.569794 377.864532,288.629303 
	C380.240875,284.189270 382.617188,279.749237 385.189209,274.943573 
	C382.061096,272.013489 379.166901,269.302521 376.680878,266.276917 
	C376.809204,266.162689 376.937500,266.048492 377.764099,266.011017 
	C379.608795,267.620819 381.517120,269.164001 383.285828,270.853363 
	C388.017517,275.372589 397.363983,279.117188 402.491455,278.521240 
	C389.166687,268.643372 384.761444,253.035294 377.814331,238.851303 
	C396.752289,255.366577 415.529816,272.140503 439.370819,278.783630 
	C423.910309,263.876099 407.826324,248.367371 391.742310,232.858658 
	C392.009399,232.480881 392.276459,232.103104 392.543518,231.725327 
	C393.861053,232.168228 395.317627,232.385956 396.469391,233.097275 
	C399.625549,235.046448 402.545044,237.390701 405.750977,239.245346 
	C419.622467,247.270020 433.213348,255.887970 447.572205,262.932831 
	C463.296631,270.647644 469.334290,271.057129 480.502747,269.518616 
	C480.446106,269.362030 480.415497,269.084564 480.329193,269.065948 
	C463.880402,265.527435 450.784729,256.607056 439.593964,244.305420 
	C434.981049,239.234543 429.949463,234.410217 424.516296,230.246170 
	C410.774231,219.714035 395.677521,211.368118 380.050873,203.942123 
	C375.879028,201.959595 371.979218,199.404739 367.992462,196.496201 
	C368.006805,196.290833 368.021149,196.085480 368.798737,196.000015 
	C374.982788,198.693146 381.198090,201.317032 387.344055,204.094452 
	C398.548340,209.157776 410.295929,213.341843 420.760773,219.645874 
	C438.401489,230.272644 455.146149,242.424881 474.197327,250.566788 
	C479.990021,253.042419 486.175568,254.598785 492.643250,256.728302 
	C480.032990,248.009171 467.885498,240.049011 456.229095,231.425018 
	C444.908264,223.049316 434.091278,213.992584 424.579437,205.106857 
	C425.087524,205.056442 425.595581,205.006027 426.835907,205.016907 
	C437.263611,210.220963 447.578003,215.670349 458.153168,220.555222 
	C467.431976,224.841293 477.120361,227.932999 487.844025,226.882721 
	C483.987366,225.280685 480.096466,224.197952 476.766205,222.186829 
	C463.734924,214.317337 450.880798,206.154510 437.982727,197.460388 
	C437.990875,197.033356 437.998993,196.606323 438.789124,196.026520 
	C441.394684,196.774826 444.053528,197.375671 446.597107,198.295395 
	C463.092041,204.259613 479.915253,208.440186 497.624359,206.937912 
	C502.661102,206.510651 507.607971,205.023636 513.930481,203.754791 
	C503.995056,202.228302 495.303314,202.002060 487.362671,199.444092 
	C470.356750,193.965836 453.738953,187.282608 437.041870,180.136215 
	C437.066162,179.817139 437.090424,179.498077 437.988708,179.050201 
	C457.856018,186.306091 501.205597,190.544434 511.527191,184.035751 
	C495.374756,184.035110 480.238281,179.846390 465.312225,174.668640 
	C450.616760,169.570862 435.938446,164.423706 421.252594,159.298203 
	C421.401276,158.649063 421.549988,157.999924 421.698669,157.350784 
	C443.981415,164.367310 466.336609,169.744171 488.987854,161.964447 
	C467.559509,157.167618 445.999084,152.341217 423.767639,147.364594 
	C432.687531,145.849487 441.057190,144.857269 449.212891,142.950119 
	C464.577179,139.357300 479.164703,133.909515 491.269745,122.206375 
	C491.394806,121.859978 491.519836,121.513580 491.644867,121.167175 
	C491.063141,121.409515 490.481415,121.651848 489.163910,121.973000 
	C482.826141,124.975922 476.719269,128.710999 470.093445,130.800552 
	C461.374878,133.550064 452.250519,135.016129 443.296478,137.015228 
	C425.156891,141.065125 406.650909,139.767822 388.300903,140.638092 
	C381.540619,140.958710 374.658569,139.516891 367.963165,140.187668 
	C360.444397,140.940918 353.344177,143.411087 347.422913,148.905975 
	C335.269287,160.184479 322.903595,171.249878 310.287689,182.007233 
	C305.358551,186.210220 299.521576,189.348541 293.505737,192.999802 
	C293.308441,193.012222 293.111176,193.024643 292.276093,192.736435 
	C288.442078,188.234024 284.684448,183.663544 280.751770,179.249039 
	C277.095886,175.145203 276.679718,168.821487 280.556946,166.251022 
	C284.503113,163.634872 284.597656,160.451187 283.680603,156.300400 
	C283.680603,156.300400 284.035217,155.958740 284.725769,156.259186 
	C286.082184,156.522461 287.585724,157.301285 288.770569,156.963211 
	C295.245270,155.115814 301.652222,153.026199 308.051666,150.925980 
	C308.859924,150.660721 309.487305,149.844299 310.578186,148.983704 
	C302.446594,142.399063 293.835144,138.925049 283.725128,140.042267 
	C282.884979,140.135117 282.179565,141.447372 282.105011,141.519791 
	C279.831451,140.072906 277.642059,137.764664 275.063721,137.184143 
	C255.275406,132.728943 234.735001,147.085068 232.047791,167.342270 
	C230.657532,177.822601 226.923492,187.456680 223.023193,196.309036 
	C225.123962,191.362518 221.193420,189.935867 218.161224,188.000153 
	C204.307800,179.156189 191.261642,169.224777 180.334946,156.931946 
	C171.103287,146.546097 160.697235,139.578995 146.218674,140.014542 
	C137.199097,140.285858 128.155396,140.256836 119.136932,139.945358 
	C105.652161,139.479614 92.108711,139.274872 78.726967,137.755066 
	C69.361153,136.691391 60.084633,134.070694 51.029499,131.293518 
	C44.171509,129.190201 37.725914,125.742233 30.893505,122.327576 
	C30.344841,122.290611 29.796179,122.253647 29.247513,122.216682 
	C29.563511,122.660904 29.879511,123.105125 30.610823,124.110069 
	C42.228954,134.495941 56.243008,139.772461 71.176872,143.016144 
	C78.239853,144.550247 85.350769,145.863724 93.718956,147.532166 
	C70.792473,152.575760 49.193684,157.327255 28.086296,161.970657 
	C52.341713,170.480484 76.450119,163.880478 100.662788,157.478058 
	C70.260567,168.918625 40.460274,182.162521 6.839568,184.386185 
	C19.646852,188.554550 32.336040,187.767731 44.624359,186.662048 
	C57.537655,185.500153 70.220802,181.780487 83.224281,179.606659 
	C83.476334,180.015121 83.728394,180.423569 83.289871,181.153839 
	C70.554497,186.086838 57.899456,191.243652 45.049011,195.856049 
	C38.855930,198.078918 32.356659,199.596802 25.882700,200.847046 
	C19.503855,202.078888 12.981798,202.569138 5.719204,203.486206 
	C23.596846,209.870255 40.587589,206.980469 57.480278,203.070602 
	C65.739204,201.159058 73.826363,198.505371 81.997955,196.825333 
	C82.011772,197.250275 82.025597,197.675217 81.739578,198.741943 
	C80.322617,199.485016 78.849289,200.138199 77.497749,200.985626 
	C67.960060,206.965866 58.583569,213.218811 48.872005,218.899857 
	C43.650894,221.954086 37.868511,224.048859 31.319288,227.042908 
	C49.846241,227.471191 64.518875,219.587997 79.392525,212.206100 
	C86.101036,208.876602 93.045570,206.022614 100.476845,203.002182 
	C100.977501,203.278397 101.478157,203.554611 101.322479,204.127075 
	C95.881630,207.907455 90.287567,211.487610 85.031792,215.509842 
	C74.044777,223.918213 63.483109,232.901932 52.272053,240.991501 
	C44.084164,246.899628 35.137836,251.756653 26.856647,256.879883 
	C26.577074,256.788147 26.907011,257.022278 27.178837,256.967590 
	C43.958729,253.591217 59.172497,246.325058 73.740303,237.689560 
	C83.286713,232.030624 92.097267,225.060410 101.872551,219.874802 
	C114.751900,213.042557 128.233414,207.339203 141.505127,201.257660 
	C144.443130,199.911377 147.586502,199.013290 150.635315,197.908829 
	C150.783249,198.364868 150.931198,198.820892 151.079132,199.276917 
	C150.576569,199.541061 150.070831,199.799377 149.571899,200.070190 
	C139.238037,205.678802 128.746567,211.018661 118.608887,216.962006 
	C103.472481,225.835968 91.010689,237.977875 78.869843,250.484711 
	C76.176659,253.259109 73.013870,255.803192 69.623688,257.630127 
	C61.699097,261.900543 53.505234,265.671234 43.982140,270.351105 
	C50.991840,269.754333 57.128433,270.252808 62.605324,268.584961 
	C83.863838,262.111237 102.948891,251.175049 121.090454,238.491028 
	C127.290741,234.155991 133.662933,230.066833 140.000961,226.483521 
	C140.014328,226.689682 140.027695,226.895859 139.777603,227.712479 
	C122.043175,244.143661 107.663979,264.089447 86.548126,277.972870 
	C88.307426,277.972870 89.387466,278.241547 90.264084,277.932739 
	C104.327103,272.979034 117.125038,265.643738 128.870255,256.563690 
	C135.151733,251.707581 140.915955,246.182358 147.404037,241.222244 
	C147.619644,241.519119 147.835251,241.815994 147.988892,242.870728 
	C141.173523,255.249893 137.774826,269.785583 124.757347,279.253235 
	C128.106613,278.766449 130.813538,278.624481 133.370361,277.929962 
	C135.870483,277.250824 138.217545,276.008209 140.631790,275.012939 
	C140.730865,275.237854 140.829941,275.462738 140.929016,275.687653 
	C139.215668,276.737946 137.502335,277.788239 135.500717,279.015259 
	C151.463318,312.990417 178.683365,334.016144 212.344299,348.043365 
	C201.200439,351.398346 191.200729,348.121521 181.050369,345.488861 
	C184.244354,347.397797 187.456467,349.248260 190.903275,350.390472 
	C196.736984,352.323639 202.504211,353.612671 208.994385,352.345612 
	C214.285049,351.312714 219.291824,346.879639 225.229965,350.034210 
	C226.261993,350.582489 227.484497,350.772156 228.526703,351.098572 
	C229.071121,348.812927 230.129425,346.943848 229.752701,345.432495 
	C228.884583,341.950043 232.034958,337.008392 226.429382,335.153229 
	C223.838196,334.295685 221.132248,333.790802 218.520035,332.989990 
	C202.338486,328.029083 188.005753,319.622711 175.329391,308.599579 
	C168.749908,302.878143 163.087097,296.102600 157.006027,289.170715 
	C156.991669,288.749268 156.977310,288.327789 157.287292,287.246033 
	C160.794022,285.498749 164.300751,283.751434 167.802032,282.006836 
	C173.485947,295.333282 209.069275,318.834473 230.289383,322.499268 
	C228.936783,319.550964 228.491516,316.106293 226.739578,315.206940 
	C220.474548,311.990723 213.494553,310.143738 207.301712,306.816986 
	C200.997833,303.430511 195.303925,298.908600 189.485184,294.979919 
	C192.814133,290.408417 196.077850,287.174103 197.839172,283.263123 
	C202.304916,273.347137 206.096878,263.127716 210.560089,253.285858 
	C210.780930,253.521729 210.942764,253.792831 211.002487,254.920090 
	C208.585220,271.215088 210.323547,287.098816 214.895050,301.190399 
	C218.553909,284.605927 222.474136,266.836792 226.596207,248.152725 
	C227.734497,249.664352 228.669937,250.401810 228.916153,251.323410 
	C229.843964,254.796021 231.089996,257.860046 230.361588,262.030548 
	C229.281906,268.212280 230.871490,274.817413 230.917236,281.245239 
	C231.319916,337.823547 231.615967,394.402618 232.018997,450.980927 
	C232.039261,453.825104 232.753464,456.664368 233.342056,460.940979 
	C234.051254,456.343323 234.622543,453.312988 234.971115,450.257263 
	C236.148331,439.937195 237.068405,429.584869 238.413742,419.287537 
	C240.854889,400.602386 248.134323,382.791260 246.566025,363.282776 
	C245.361771,348.302582 246.705566,333.117554 247.372559,318.038513 
M165.113312,371.659851 
	C166.633865,372.176514 168.181335,372.625885 169.670471,373.221130 
	C177.319321,376.278564 184.474411,374.445038 191.738983,371.060974 
	C167.173294,375.110443 154.539780,360.891296 144.885666,341.674255 
	C148.491806,353.427368 152.884613,364.642151 165.113312,371.659851 
M364.013062,362.509125 
	C369.897491,355.453857 374.327454,345.051483 373.408783,340.583282 
	C364.931183,361.051727 351.522552,374.250092 327.072601,371.025940 
	C339.120819,377.558380 355.651489,374.076355 364.013062,362.509125 
M314.514252,349.947815 
	C310.212677,349.545441 305.911102,349.143036 301.609528,348.740662 
	C313.643463,355.912781 324.781830,352.180847 336.916138,345.985596 
	C328.931763,347.456909 322.172302,348.702484 314.514252,349.947815 
M356.599213,331.945282 
	C358.975525,327.549652 361.351807,323.153992 363.728119,318.758362 
	C363.349091,318.565918 362.970062,318.373505 362.591034,318.181061 
	C358.305756,324.239319 354.020477,330.297607 349.735199,336.355865 
	C350.047424,336.619263 350.359650,336.882629 350.671875,337.146027 
	C352.467407,335.580353 354.262909,334.014709 356.599213,331.945282 
M375.985107,318.413574 
	C376.095673,319.467133 376.206238,320.520660 376.316803,321.574219 
	C377.649078,313.975586 376.366364,306.883026 372.298126,300.360474 
	C373.521545,306.087982 374.744934,311.815460 375.985107,318.413574 
M142.001099,310.890900 
	C142.001099,313.444489 142.001099,315.998077 142.001099,319.937866 
	C143.588058,312.783813 144.853745,307.077972 146.119446,301.372162 
	C145.843277,301.296387 145.567108,301.220642 145.290939,301.144867 
	C144.200150,304.101105 143.109360,307.057312 142.001099,310.890900 
z"/>
<path fill="#FFFFFF" opacity="1.000000" stroke="none" 
	d="
M367.954498,197.112625 
	C371.979218,199.404739 375.879028,201.959595 380.050873,203.942123 
	C395.677521,211.368118 410.774231,219.714035 424.516296,230.246170 
	C429.949463,234.410217 434.981049,239.234543 439.593964,244.305420 
	C450.784729,256.607056 463.880402,265.527435 480.329193,269.065948 
	C480.415497,269.084564 480.446106,269.362030 480.502747,269.518616 
	C469.334290,271.057129 463.296631,270.647644 447.572205,262.932831 
	C433.213348,255.887970 419.622467,247.270020 405.750977,239.245346 
	C402.545044,237.390701 399.625549,235.046448 396.469391,233.097275 
	C395.317627,232.385956 393.861053,232.168228 392.543518,231.725327 
	C392.276459,232.103104 392.009399,232.480881 391.742310,232.858658 
	C407.826324,248.367371 423.910309,263.876099 439.370819,278.783630 
	C415.529816,272.140503 396.752289,255.366577 377.814331,238.851303 
	C384.761444,253.035294 389.166687,268.643372 402.491455,278.521240 
	C397.363983,279.117188 388.017517,275.372589 383.285828,270.853363 
	C381.517120,269.164001 379.608795,267.620819 377.374878,265.609985 
	C373.014984,260.795258 369.044342,256.381561 364.949677,251.645966 
	C363.881836,250.200638 362.800629,249.165131 362.016266,247.939621 
	C356.540558,239.384430 351.159546,230.768417 345.646820,222.237411 
	C345.014526,221.258911 343.756226,220.684937 342.788208,219.923401 
	C346.430054,227.246948 349.894592,234.094574 354.223480,240.343399 
	C357.998901,245.793350 361.008423,251.267273 361.102661,258.417603 
	C362.755035,265.445679 364.478790,272.064911 366.406219,279.466156 
	C369.172729,274.092682 371.139099,270.114838 373.340149,266.271423 
	C373.535522,265.930206 375.258972,266.464081 376.272705,266.591522 
	C379.166901,269.302521 382.061096,272.013489 385.189209,274.943573 
	C382.617188,279.749237 380.240875,284.189270 377.289001,288.394043 
	C373.717010,285.145416 370.720612,282.131989 367.724213,279.118591 
	C367.465942,279.271271 367.207672,279.423981 366.949402,279.576660 
	C368.787964,282.640381 370.626526,285.704071 372.673737,289.115509 
	C370.174927,288.788696 367.795013,288.477386 364.514893,288.048370 
	C369.362701,290.913086 373.326172,292.223419 377.271057,288.431610 
	C373.691711,293.962738 370.612335,299.907593 366.440948,304.948883 
	C352.959900,321.241302 336.313416,333.554016 317.134583,342.445374 
	C308.370148,346.508545 299.227692,349.180267 289.000153,350.273956 
	C289.000153,346.317139 288.597504,342.657379 289.184082,339.163696 
	C289.445007,337.609772 291.480865,335.575684 293.083984,335.143890 
	C312.358612,329.952148 329.589203,320.995422 344.081970,307.254608 
	C350.794098,300.890686 356.761780,293.741516 363.237061,286.765106 
	C360.573425,284.472076 358.481415,282.106201 355.874329,280.685486 
	C354.719299,280.056061 351.821320,280.751648 350.906982,281.843964 
	C341.869659,292.640106 331.783813,302.074402 319.918854,309.862183 
	C310.644806,315.949432 300.438141,319.179901 290.339600,322.950562 
	C287.780182,317.437622 288.995972,315.866302 295.231781,313.944214 
	C307.899017,310.039734 319.292908,303.768433 329.394592,294.266876 
	C318.673828,281.529205 313.456360,266.338989 308.987640,250.015076 
	C307.296021,242.285416 305.612457,235.344818 303.876862,228.189667 
	C303.361572,228.285080 302.161987,228.507172 301.203369,228.684647 
	C301.203369,231.836151 301.203369,234.626801 301.203369,237.417435 
	C301.399078,237.429184 301.594788,237.440933 301.790497,237.452667 
	C301.910095,235.119919 302.029694,232.787186 302.149292,230.454437 
	C302.324677,230.431702 302.500092,230.408966 302.675476,230.386246 
	C304.435150,237.291000 306.194794,244.195755 307.954437,251.100525 
	C308.307220,258.823303 309.396393,266.601227 308.823486,274.254730 
	C308.131866,283.494476 306.031067,292.628784 304.556976,301.705414 
	C300.920349,285.751099 297.358032,270.155304 293.820648,254.553864 
	C293.464050,252.981110 293.258270,251.374176 292.992310,249.392090 
	C293.002106,249.001083 292.941498,249.076828 293.305298,248.950714 
	C295.414673,242.656204 297.664886,236.579056 298.800171,230.300308 
	C301.122894,217.454849 300.518524,204.800797 294.098083,192.971771 
	C299.521576,189.348541 305.358551,186.210220 310.287689,182.007233 
	C322.903595,171.249878 335.269287,160.184479 347.422913,148.905975 
	C353.344177,143.411087 360.444397,140.940918 367.963165,140.187668 
	C374.658569,139.516891 381.540619,140.958710 388.300903,140.638092 
	C406.650909,139.767822 425.156891,141.065125 443.296478,137.015228 
	C452.250519,135.016129 461.374878,133.550064 470.093445,130.800552 
	C476.719269,128.710999 482.826141,124.975922 489.749695,122.115257 
	C490.490814,122.365395 490.646149,122.473274 490.801483,122.581154 
	C479.164703,133.909515 464.577179,139.357300 449.212891,142.950119 
	C441.057190,144.857269 432.687531,145.849487 423.767639,147.364594 
	C445.999084,152.341217 467.559509,157.167618 488.987854,161.964447 
	C466.336609,169.744171 443.981415,164.367310 421.698669,157.350784 
	C421.549988,157.999924 421.401276,158.649063 421.252594,159.298203 
	C435.938446,164.423706 450.616760,169.570862 465.312225,174.668640 
	C480.238281,179.846390 495.374756,184.035110 511.527191,184.035751 
	C501.205597,190.544434 457.856018,186.306091 437.222107,178.996521 
	C430.846710,177.242050 425.237885,175.541260 419.629028,173.840454 
	C419.536682,174.158081 419.444305,174.475693 419.351959,174.793320 
	C425.222046,176.893173 431.092133,178.993011 436.962219,181.092865 
	C453.738953,187.282608 470.356750,193.965836 487.362671,199.444092 
	C495.303314,202.002060 503.995056,202.228302 513.930481,203.754791 
	C507.607971,205.023636 502.661102,206.510651 497.624359,206.937912 
	C479.915253,208.440186 463.092041,204.259613 446.597107,198.295395 
	C444.053528,197.375671 441.394684,196.774826 438.013824,196.016052 
	C423.957123,191.337982 410.700073,186.599625 397.387421,182.022888 
	C384.272583,177.514175 383.330994,177.430893 376.575623,178.779999 
	C386.216370,178.302216 394.257141,183.069244 402.834259,186.245789 
	C414.417847,190.535736 426.240662,194.179596 437.960846,198.100677 
	C450.880798,206.154510 463.734924,214.317337 476.766205,222.186829 
	C480.096466,224.197952 483.987366,225.280685 487.844025,226.882721 
	C477.120361,227.932999 467.431976,224.841293 458.153168,220.555222 
	C447.578003,215.670349 437.263611,210.220963 426.306061,204.639069 
	C417.774780,201.724457 409.773315,199.187653 401.771851,196.650864 
	C401.694366,196.933563 401.616882,197.216278 401.539398,197.498978 
	C408.710602,200.077637 415.881836,202.656281 423.053040,205.234924 
	C434.091278,213.992584 444.908264,223.049316 456.229095,231.425018 
	C467.885498,240.049011 480.032990,248.009171 492.643250,256.728302 
	C486.175568,254.598785 479.990021,253.042419 474.197327,250.566788 
	C455.146149,242.424881 438.401489,230.272644 420.760773,219.645874 
	C410.295929,213.341843 398.548340,209.157776 387.344055,204.094452 
	C381.198090,201.317032 374.982788,198.693146 368.286377,195.619354 
	C365.845001,192.428680 363.916016,189.618668 361.987000,186.808640 
	C361.458038,187.185898 360.929047,187.563156 360.400055,187.940414 
	C362.918213,190.997818 365.436340,194.055222 367.954498,197.112625 
M366.152985,212.697556 
	C366.928680,213.138550 367.704376,213.579544 368.480072,214.020538 
	C368.616669,213.794098 368.753265,213.567657 368.889832,213.341217 
	C368.169708,212.697296 367.449585,212.053391 366.317871,210.908707 
	C365.572662,210.578415 364.827454,210.248108 363.848175,209.301788 
	C362.589569,208.508224 361.330933,207.714645 359.930511,206.427307 
	C359.643311,206.263016 359.356079,206.098724 358.783997,205.291641 
	C357.575012,204.430710 356.365997,203.569763 355.157013,202.708832 
	C354.913422,203.027557 354.669830,203.346283 354.426270,203.665009 
	C355.837219,204.738220 357.248169,205.811432 358.775757,207.091080 
	C358.775757,207.091080 359.149384,207.375092 359.521515,207.972839 
	C360.813354,208.893387 362.105225,209.813934 363.791656,211.199234 
	C364.502808,211.493820 365.213989,211.788406 366.152985,212.697556 
M336.043152,258.453125 
	C334.289307,255.600983 332.535461,252.748840 330.781616,249.896713 
	C330.499420,250.009094 330.217224,250.121490 329.934998,250.233887 
	C331.513214,262.854248 333.091431,275.474609 334.669647,288.094971 
	C335.233948,288.190491 335.798248,288.286011 336.362549,288.381531 
	C340.603912,283.879517 344.845245,279.377533 349.418030,274.523712 
	C345.562744,269.842804 341.081757,264.402100 336.043152,258.453125 
M336.534424,222.956711 
	C341.034485,218.233444 337.215942,214.460358 334.936462,210.497101 
	C333.967865,214.569412 332.897125,218.642212 336.534424,222.956711 
z"/>
<path fill="#FFFFFF" opacity="1.000000" stroke="none" 
	d="
M210.158646,253.029785 
	C206.096878,263.127716 202.304916,273.347137 197.839172,283.263123 
	C196.077850,287.174103 192.814133,290.408417 189.485184,294.979919 
	C195.303925,298.908600 200.997833,303.430511 207.301712,306.816986 
	C213.494553,310.143738 220.474548,311.990723 226.739578,315.206940 
	C228.491516,316.106293 228.936783,319.550964 230.289383,322.499268 
	C209.069275,318.834473 173.485947,295.333282 167.802032,282.006836 
	C164.300751,283.751434 160.794022,285.498749 156.751862,287.629059 
	C154.896439,288.345947 153.576431,288.679840 152.256439,289.013733 
	C152.155914,288.718170 152.055389,288.422638 151.954880,288.127075 
	C152.996490,287.094910 154.038116,286.062744 155.401093,284.884888 
	C158.461441,279.170593 161.719208,273.789795 163.818558,267.989685 
	C167.014053,259.161163 169.407059,250.042175 172.465393,240.914276 
	C176.753250,233.965668 180.716583,227.149292 184.464569,220.703262 
	C183.619064,219.500809 182.950745,218.550339 182.687469,218.175919 
	C181.721573,220.289749 180.779007,222.640732 179.603088,224.868530 
	C176.756485,230.261490 173.801132,235.597046 170.571472,241.099426 
	C162.148682,251.436996 154.044022,261.630859 146.174438,271.529053 
	C148.450348,275.149048 151.200165,279.522827 153.629669,284.041321 
	C151.426987,285.774139 149.544632,287.362274 146.651443,289.803253 
	C151.102921,289.803253 154.056549,289.803253 157.010178,289.803253 
	C163.087097,296.102600 168.749908,302.878143 175.329391,308.599579 
	C188.005753,319.622711 202.338486,328.029083 218.520035,332.989990 
	C221.132248,333.790802 223.838196,334.295685 226.429382,335.153229 
	C232.034958,337.008392 228.884583,341.950043 229.752701,345.432495 
	C230.129425,346.943848 229.071121,348.812927 228.526703,351.098572 
	C227.484497,350.772156 226.261993,350.582489 225.229965,350.034210 
	C219.291824,346.879639 214.285049,351.312714 208.994385,352.345612 
	C202.504211,353.612671 196.736984,352.323639 190.903275,350.390472 
	C187.456467,349.248260 184.244354,347.397797 181.050369,345.488861 
	C191.200729,348.121521 201.200439,351.398346 212.344299,348.043365 
	C178.683365,334.016144 151.463318,312.990417 135.500717,279.015259 
	C137.502335,277.788239 139.215668,276.737946 140.929016,275.687653 
	C140.829941,275.462738 140.730865,275.237854 140.631790,275.012939 
	C138.217545,276.008209 135.870483,277.250824 133.370361,277.929962 
	C130.813538,278.624481 128.106613,278.766449 124.757347,279.253235 
	C137.774826,269.785583 141.173523,255.249893 148.323700,242.367584 
	C149.137894,240.939651 149.617279,240.014862 150.343109,239.020050 
	C150.756577,238.664703 150.923584,238.379410 151.433105,238.054443 
	C152.215179,237.372452 152.654755,236.730118 153.341034,236.018219 
	C153.754807,235.663269 153.921906,235.377899 154.336670,235.021576 
	C154.752319,234.663925 154.920303,234.377213 155.429230,234.050659 
	C156.210052,233.370178 156.649933,232.729538 157.443085,232.050278 
	C159.316940,230.649307 160.837555,229.286972 162.358154,227.924637 
	C161.972748,227.513733 161.587357,227.102844 161.201965,226.691956 
	C159.557037,228.260696 157.912109,229.829453 156.038269,231.592285 
	C155.265060,232.370636 154.720749,232.954910 153.961914,233.695862 
	C153.537201,234.121826 153.327011,234.391098 153.024628,234.716949 
	C152.932419,234.773544 152.668320,235.112579 152.354980,235.300278 
	C151.399170,236.213120 150.756714,236.938263 150.023712,237.719818 
	C149.933182,237.776230 149.671463,238.109741 149.373322,238.270126 
	C148.354645,239.273376 147.634125,240.116241 146.913605,240.959106 
	C140.915955,246.182358 135.151733,251.707581 128.870255,256.563690 
	C117.125038,265.643738 104.327103,272.979034 90.264084,277.932739 
	C89.387466,278.241547 88.307426,277.972870 86.548126,277.972870 
	C107.663979,264.089447 122.043175,244.143661 140.252808,227.362427 
	C142.518143,225.372238 144.308289,223.732086 146.344238,222.020615 
	C146.757309,221.664322 146.924561,221.379349 147.444550,221.051941 
	C149.771240,219.542084 151.745163,218.074692 154.002930,216.366669 
	C154.617203,215.641769 154.947632,215.157486 155.278046,214.673203 
	C154.953644,214.454620 154.377487,214.011963 154.342621,214.051132 
	C153.823608,214.634201 153.376221,215.281021 152.552643,215.951965 
	C150.162476,217.553680 148.131561,219.116226 146.028717,220.733398 
	C145.956787,220.788010 145.725082,221.064423 145.402344,221.230896 
	C143.371933,222.886703 141.664246,224.376007 139.956573,225.865326 
	C133.662933,230.066833 127.290741,234.155991 121.090454,238.491028 
	C102.948891,251.175049 83.863838,262.111237 62.605324,268.584961 
	C57.128433,270.252808 50.991840,269.754333 43.982140,270.351105 
	C53.505234,265.671234 61.699097,261.900543 69.623688,257.630127 
	C73.013870,255.803192 76.176659,253.259109 78.869843,250.484711 
	C91.010689,237.977875 103.472481,225.835968 118.608887,216.962006 
	C128.746567,211.018661 139.238037,205.678802 149.571899,200.070190 
	C150.070831,199.799377 150.576569,199.541061 151.079132,199.276917 
	C150.931198,198.820892 150.783249,198.364868 150.635315,197.908829 
	C147.586502,199.013290 144.443130,199.911377 141.505127,201.257660 
	C128.233414,207.339203 114.751900,213.042557 101.872551,219.874802 
	C92.097267,225.060410 83.286713,232.030624 73.740303,237.689560 
	C59.172497,246.325058 43.958729,253.591217 27.178837,256.967590 
	C26.907011,257.022278 26.577074,256.788147 26.856647,256.879883 
	C35.137836,251.756653 44.084164,246.899628 52.272053,240.991501 
	C63.483109,232.901932 74.044777,223.918213 85.031792,215.509842 
	C90.287567,211.487610 95.881630,207.907455 102.041672,204.051544 
	C117.450584,198.979584 132.152283,194.017624 146.809555,188.927780 
	C148.119949,188.472733 149.142273,187.188171 150.682938,185.989746 
	C139.932449,189.520462 130.042343,192.734436 120.176308,196.020645 
	C113.394600,198.279526 106.646271,200.638611 99.883018,202.952911 
	C93.045570,206.022614 86.101036,208.876602 79.392525,212.206100 
	C64.518875,219.587997 49.846241,227.471191 31.319288,227.042908 
	C37.868511,224.048859 43.650894,221.954086 48.872005,218.899857 
	C58.583569,213.218811 67.960060,206.965866 77.497749,200.985626 
	C78.849289,200.138199 80.322617,199.485016 82.289871,198.362244 
	C84.870407,197.496857 86.949020,197.156555 88.922470,196.500092 
	C97.118103,193.773865 105.369812,191.181351 113.429230,188.091797 
	C119.671303,185.698944 125.658279,182.640686 131.758652,179.878220 
	C131.579788,179.456696 131.400909,179.035172 131.222046,178.613663 
	C127.110191,180.272675 123.056526,182.098190 118.875511,183.559311 
	C106.607918,187.846436 94.289673,191.988632 81.991264,196.187592 
	C73.826363,198.505371 65.739204,201.159058 57.480278,203.070602 
	C40.587589,206.980469 23.596846,209.870255 5.719204,203.486206 
	C12.981798,202.569138 19.503855,202.078888 25.882700,200.847046 
	C32.356659,199.596802 38.855930,198.078918 45.049011,195.856049 
	C57.899456,191.243652 70.554497,186.086838 84.017822,181.064362 
	C92.018074,178.232452 99.290382,175.490005 106.562691,172.747559 
	C106.434456,172.386917 106.306221,172.026276 106.177986,171.665634 
	C98.453499,174.169922 90.729012,176.674210 83.004524,179.178513 
	C70.220802,181.780487 57.537655,185.500153 44.624359,186.662048 
	C32.336040,187.767731 19.646852,188.554550 6.839568,184.386185 
	C40.460274,182.162521 70.260567,168.918625 100.662788,157.478058 
	C76.450119,163.880478 52.341713,170.480484 28.086296,161.970657 
	C49.193684,157.327255 70.792473,152.575760 93.718956,147.532166 
	C85.350769,145.863724 78.239853,144.550247 71.176872,143.016144 
	C56.243008,139.772461 42.228954,134.495941 30.636293,123.676247 
	C30.806776,123.125832 30.951788,123.009239 31.096800,122.892654 
	C37.725914,125.742233 44.171509,129.190201 51.029499,131.293518 
	C60.084633,134.070694 69.361153,136.691391 78.726967,137.755066 
	C92.108711,139.274872 105.652161,139.479614 119.136932,139.945358 
	C128.155396,140.256836 137.199097,140.285858 146.218674,140.014542 
	C160.697235,139.578995 171.103287,146.546097 180.334946,156.931946 
	C191.261642,169.224777 204.307800,179.156189 218.161224,188.000153 
	C221.193420,189.935867 225.123962,191.362518 223.010345,196.653534 
	C222.997482,196.998047 223.056854,196.921188 222.673279,197.077103 
	C221.520004,204.790756 220.775208,212.351181 219.966003,219.904694 
	C219.709854,222.295563 219.281754,224.668015 218.965027,227.018707 
	C218.997696,226.988495 219.060028,226.924957 218.703262,227.049088 
	C217.010010,227.602844 215.673523,228.032471 214.337036,228.462097 
	C214.784317,228.540573 215.231598,228.619034 215.678894,228.697510 
	C213.838806,236.808258 211.998718,244.919022 210.158646,253.029785 
M159.191071,209.994339 
	C157.907928,211.057190 156.624802,212.120041 155.341660,213.182877 
	C155.678024,213.593674 156.014389,214.004456 156.350739,214.415237 
	C157.799820,213.147339 159.248901,211.879440 161.184265,210.213715 
	C161.728104,209.610107 162.271942,209.006500 162.815781,208.402893 
	C162.592499,208.206436 162.369202,208.009979 162.145920,207.813507 
	C161.405441,208.515594 160.664978,209.217667 159.191071,209.994339 
M176.071808,281.581970 
	C178.368195,284.112915 180.664581,286.643860 183.867645,290.174133 
	C185.885437,275.869019 187.746170,262.677277 189.409866,250.882523 
	C183.019638,260.100281 175.872833,270.409424 168.726028,280.718567 
	C169.318512,281.237518 169.910995,281.756470 170.503479,282.275452 
	C171.256104,280.992218 172.008713,279.709015 173.085754,277.872650 
	C173.946579,278.960724 174.769012,280.000275 176.071808,281.581970 
M117.622787,147.985992 
	C115.292068,147.985992 112.961357,147.985992 110.630638,147.985992 
	C110.638908,148.225220 110.647179,148.464447 110.655449,148.703674 
	C118.893509,148.703674 127.131569,148.703674 135.369629,148.703674 
	C135.370956,148.463806 135.372284,148.223953 135.373611,147.984085 
	C129.779129,147.984085 124.184654,147.984085 117.622787,147.985992 
z"/>
<path fill="#FFFFFF" opacity="1.000000" stroke="none" 
	d="
M283.300323,156.613281 
	C284.597656,160.451187 284.503113,163.634872 280.556946,166.251022 
	C276.679718,168.821487 277.095886,175.145203 280.751770,179.249039 
	C284.684448,183.663544 288.442078,188.234024 292.734833,193.228485 
	C299.489624,204.860382 298.572113,216.994553 297.433105,228.934769 
	C296.784882,235.729782 294.493103,242.367996 292.941498,249.076828 
	C292.941498,249.076828 293.002106,249.001083 293.032043,248.962952 
	C291.207947,252.616608 289.094940,256.211121 287.650238,260.056732 
	C287.188782,261.285095 288.950989,263.185333 288.929047,264.767548 
	C288.710480,280.523529 288.373901,296.278320 287.980988,312.031189 
	C287.757996,320.969177 287.124451,329.902252 287.096863,338.838837 
	C286.988281,373.986572 287.099060,409.134949 286.993225,444.282684 
	C286.974915,450.361176 286.301300,456.437683 285.105713,462.746033 
	C284.737488,461.600586 284.017853,460.444366 284.052612,459.311310 
	C284.867493,432.769989 278.337067,407.352081 272.349579,381.845245 
	C272.014160,380.416321 272.005035,378.888733 272.003082,377.406860 
	C271.978546,358.583466 271.983185,339.760010 272.089111,320.090149 
	C272.482788,316.168640 272.354279,312.985718 273.123566,310.037018 
	C276.625153,296.615692 280.357178,283.254150 284.069153,269.888519 
	C284.567474,268.094360 285.422821,266.399384 286.112854,264.658447 
	C283.162811,269.232574 281.188660,274.151245 279.440308,279.148926 
	C274.810150,292.384308 271.753754,305.951904 271.167847,320.012604 
	C271.100372,335.962524 271.644592,351.944977 270.798370,367.853485 
	C269.900604,384.730682 267.723846,401.541809 266.024689,418.373627 
	C265.104980,427.484619 264.017914,436.578735 263.003448,445.680115 
	C261.825195,456.251648 260.643860,466.822845 259.414490,477.836060 
	C258.912018,473.730743 258.425446,469.997620 258.002472,466.257355 
	C256.332428,451.489990 254.602234,436.728790 253.051331,421.948822 
	C251.899506,410.971985 250.529037,399.989044 250.067825,388.974823 
	C249.090759,365.641113 248.644165,342.285187 247.983353,318.046387 
	C246.226807,298.070740 241.334061,279.827545 233.423050,262.362518 
	C233.071701,263.064575 232.919601,263.748749 233.094116,264.335876 
	C236.723312,276.545441 240.598480,288.686951 243.953995,300.970581 
	C245.467529,306.511200 245.960297,312.330658 246.916183,318.023621 
	C246.705566,333.117554 245.361771,348.302582 246.566025,363.282776 
	C248.134323,382.791260 240.854889,400.602386 238.413742,419.287537 
	C237.068405,429.584869 236.148331,439.937195 234.971115,450.257263 
	C234.622543,453.312988 234.051254,456.343323 233.342056,460.940979 
	C232.753464,456.664368 232.039261,453.825104 232.018997,450.980927 
	C231.615967,394.402618 231.319916,337.823547 230.917236,281.245239 
	C230.871490,274.817413 229.281906,268.212280 230.361588,262.030548 
	C231.089996,257.860046 229.843964,254.796021 228.916153,251.323410 
	C228.669937,250.401810 227.734497,249.664352 226.596207,248.152725 
	C222.474136,266.836792 218.553909,284.605927 214.895050,301.190399 
	C210.323547,287.098816 208.585220,271.215088 211.381699,254.303619 
	C214.193954,244.766403 216.626984,235.845688 219.060028,226.924957 
	C219.060028,226.924957 218.997696,226.988495 219.352173,227.101181 
	C220.618362,230.631134 221.530090,234.048386 222.441818,237.465652 
	C222.369675,232.373337 221.062836,227.386551 221.161591,222.427750 
	C221.331055,213.916351 222.378189,205.422440 223.056854,196.921188 
	C223.056854,196.921188 222.997482,196.998047 222.968048,197.036682 
	C226.923492,187.456680 230.657532,177.822601 232.047791,167.342270 
	C234.735001,147.085068 255.275406,132.728943 275.063721,137.184143 
	C277.642059,137.764664 279.831451,140.072906 282.105011,141.519791 
	C282.179565,141.447372 282.884979,140.135117 283.725128,140.042267 
	C293.835144,138.925049 302.446594,142.399063 310.578186,148.983704 
	C309.487305,149.844299 308.859924,150.660721 308.051666,150.925980 
	C301.652222,153.026199 295.245270,155.115814 288.770569,156.963211 
	C287.585724,157.301285 286.082184,156.522461 284.293518,155.824188 
	C283.341278,155.278076 282.821289,155.166931 282.301300,155.055801 
	C282.107178,155.314346 281.913055,155.572876 281.718964,155.831421 
	C282.246094,156.092041 282.773193,156.352661 283.300323,156.613281 
M243.990570,170.303375 
	C245.219910,173.249115 245.792755,176.778427 247.798050,179.034454 
	C254.618622,186.707733 260.263000,194.761459 260.474335,205.588669 
	C261.458405,197.508530 261.159271,190.047562 255.281204,183.447495 
	C251.030533,178.674698 247.906357,172.898651 244.234192,167.503021 
	C244.711777,167.218002 244.290558,167.325394 244.239578,167.526581 
	C244.080902,168.152847 244.062546,168.814667 243.990570,170.303375 
z"/>
<path fill="#FFFFFF" opacity="1.000000" stroke="none" 
	d="
M251.171371,44.015450 
	C245.514816,45.015324 239.756058,45.631149 234.225128,47.103065 
	C225.436325,49.441978 216.484192,51.613617 208.161179,55.167568 
	C187.984085,63.783241 170.833298,76.592209 156.715118,93.630013 
	C145.675888,106.952133 137.135864,121.492767 131.692307,137.808838 
	C126.724152,137.808838 121.952072,137.808838 116.880753,137.808838 
	C121.254036,122.385216 128.824982,108.949699 137.434875,95.863121 
	C150.739532,75.640747 168.314545,60.217640 189.155365,48.464470 
	C203.356461,40.455784 218.697281,35.037434 234.783722,32.173912 
	C240.416794,31.171181 246.258179,31.338593 252.496155,31.429226 
	C252.382370,35.929676 251.776871,39.972561 251.171371,44.015450 
z"/>
<path fill="#FFFFFF" opacity="1.000000" stroke="none" 
	d="
M266.087463,31.028677 
	C287.996399,30.934202 308.194000,37.336689 327.543030,47.087265 
	C340.002411,53.365963 350.743774,61.849998 360.997955,71.267334 
	C375.809967,84.870491 386.745789,101.096611 395.450653,118.976265 
	C398.323608,124.877228 400.525604,131.104828 403.372437,138.002060 
	C398.381714,138.002060 393.843262,138.133392 389.325989,137.882782 
	C388.498383,137.836868 387.428223,136.366516 387.025482,135.336487 
	C381.726807,121.785606 375.189087,109.034409 366.150330,97.442902 
	C355.964386,84.380211 343.791321,73.859276 329.945282,64.969917 
	C315.115875,55.449234 298.895630,49.631187 281.778564,46.082111 
	C277.523346,45.199825 273.149048,44.891830 268.419434,43.719299 
	C267.368744,39.088715 266.728119,35.058697 266.087463,31.028677 
z"/>
<path fill="#FFFFFF" opacity="1.000000" stroke="none" 
	d="
M254.840881,30.990086 
	C255.893219,25.161982 256.971527,19.338387 257.985138,13.503560 
	C258.392273,11.159806 258.657440,8.791387 259.697845,6.439828 
	C261.066406,14.706365 262.434937,22.972900 263.914490,32.019917 
	C264.744812,36.536770 265.464142,40.273144 266.183472,44.009514 
	C266.795288,47.656204 267.785522,51.290581 267.904724,54.953300 
	C268.008698,58.148708 269.743683,58.703106 272.152252,58.964649 
	C292.076630,61.128189 310.335541,67.930183 326.969269,79.005707 
	C343.377930,89.931351 356.073486,104.365761 365.818909,121.414124 
	C368.762482,126.563477 371.294067,131.948318 374.152771,137.493744 
	C370.157990,139.190170 367.493561,139.077225 365.186066,134.817383 
	C360.285919,125.771378 355.853455,116.176155 349.356903,108.362938 
	C340.504456,97.716316 330.301605,88.027084 318.047760,81.047020 
	C304.653564,73.417389 290.362915,68.339264 275.056641,65.979965 
	C251.006714,62.272934 228.380920,66.913795 207.221375,78.140099 
	C189.951065,87.302933 175.476791,100.019447 165.068268,116.861725 
	C161.256271,123.030006 158.058151,129.599686 153.944046,135.546280 
	C152.655380,137.408936 149.287598,137.833206 145.678497,139.450485 
	C153.017166,119.644051 163.592621,104.001503 177.689316,90.921402 
	C194.867249,74.982277 215.372055,65.165855 238.163086,60.025742 
	C240.052780,59.599560 241.996277,59.416256 243.893539,59.018726 
	C251.350876,57.456192 251.315857,57.438286 252.002792,49.747921 
	C252.144974,48.156120 252.621033,46.594139 252.964935,44.196411 
	C253.604736,39.246300 254.222809,35.118195 254.840881,30.990086 
z"/>
<path fill="#FFFFFF" opacity="1.000000" stroke="none" 
	d="
M164.841492,371.379639 
	C152.884613,364.642151 148.491806,353.427368 144.885666,341.674255 
	C154.539780,360.891296 167.173294,375.110443 191.738983,371.060974 
	C184.474411,374.445038 177.319321,376.278564 169.670471,373.221130 
	C168.181335,372.625885 166.633865,372.176514 164.841492,371.379639 
z"/>
<path fill="#FFFFFF" opacity="1.000000" stroke="none" 
	d="
M363.744995,362.763611 
	C355.651489,374.076355 339.120819,377.558380 327.072601,371.025940 
	C351.522552,374.250092 364.931183,361.051727 373.408783,340.583282 
	C374.327454,345.051483 369.897491,355.453857 363.744995,362.763611 
z"/>
<path fill="#090808" opacity="1.000000" stroke="none" 
	d="
M437.971802,197.780533 
	C426.240662,194.179596 414.417847,190.535736 402.834259,186.245789 
	C394.257141,183.069244 386.216370,178.302216 376.575623,178.779999 
	C383.330994,177.430893 384.272583,177.514175 397.387421,182.022888 
	C410.700073,186.599625 423.957123,191.337982 437.622833,196.092438 
	C437.998993,196.606323 437.990875,197.033356 437.971802,197.780533 
z"/>
<path fill="#0A090A" opacity="1.000000" stroke="none" 
	d="
M100.179932,202.977539 
	C106.646271,200.638611 113.394600,198.279526 120.176308,196.020645 
	C130.042343,192.734436 139.932449,189.520462 150.682938,185.989746 
	C149.142273,187.188171 148.119949,188.472733 146.809555,188.927780 
	C132.152283,194.017624 117.450584,198.979584 102.369835,203.903412 
	C101.478157,203.554611 100.977501,203.278397 100.179932,202.977539 
z"/>
<path fill="#0A090A" opacity="1.000000" stroke="none" 
	d="
M81.994614,196.506470 
	C94.289673,191.988632 106.607918,187.846436 118.875511,183.559311 
	C123.056526,182.098190 127.110191,180.272675 131.222046,178.613663 
	C131.400909,179.035172 131.579788,179.456696 131.758652,179.878220 
	C125.658279,182.640686 119.671303,185.698944 113.429230,188.091797 
	C105.369812,191.181351 97.118103,193.773865 88.922470,196.500092 
	C86.949020,197.156555 84.870407,197.496857 82.439789,198.041351 
	C82.025597,197.675217 82.011772,197.250275 81.994614,196.506470 
z"/>
<path fill="#FFFFFF" opacity="1.000000" stroke="none" 
	d="
M314.963562,349.947937 
	C322.172302,348.702484 328.931763,347.456909 336.916138,345.985596 
	C324.781830,352.180847 313.643463,355.912781 301.609528,348.740662 
	C305.911102,349.143036 310.212677,349.545441 314.963562,349.947937 
z"/>
<path fill="#111010" opacity="1.000000" stroke="none" 
	d="
M247.144379,318.031067 
	C245.960297,312.330658 245.467529,306.511200 243.953995,300.970581 
	C240.598480,288.686951 236.723312,276.545441 233.094116,264.335876 
	C232.919601,263.748749 233.071701,263.064575 233.423050,262.362518 
	C241.334061,279.827545 246.226807,298.070740 247.907578,317.584045 
	C247.828491,318.013702 247.372559,318.038513 247.144379,318.031067 
z"/>
<path fill="#111011" opacity="1.000000" stroke="none" 
	d="
M293.305298,248.950714 
	C294.493103,242.367996 296.784882,235.729782 297.433105,228.934769 
	C298.572113,216.994553 299.489624,204.860382 293.053711,193.378815 
	C293.111176,193.024643 293.308441,193.012222 293.801910,192.985794 
	C300.518524,204.800797 301.122894,217.454849 298.800171,230.300308 
	C297.664886,236.579056 295.414673,242.656204 293.305298,248.950714 
z"/>
<path fill="#111010" opacity="1.000000" stroke="none" 
	d="
M271.333923,320.011414 
	C271.753754,305.951904 274.810150,292.384308 279.440308,279.148926 
	C281.188660,274.151245 283.162811,269.232574 286.112854,264.658447 
	C285.422821,266.399384 284.567474,268.094360 284.069153,269.888519 
	C280.357178,283.254150 276.625153,296.615692 273.123566,310.037018 
	C272.354279,312.985718 272.482788,316.168640 272.014984,319.627411 
	C271.832123,320.011108 271.500000,320.010223 271.333923,320.011414 
z"/>
<path fill="#FFFFFF" opacity="1.000000" stroke="none" 
	d="
M356.328827,332.197144 
	C354.262909,334.014709 352.467407,335.580353 350.671875,337.146027 
	C350.359650,336.882629 350.047424,336.619263 349.735199,336.355865 
	C354.020477,330.297607 358.305756,324.239319 362.591034,318.181061 
	C362.970062,318.373505 363.349091,318.565918 363.728119,318.758362 
	C361.351807,323.153992 358.975525,327.549652 356.328827,332.197144 
z"/>
<path fill="#131212" opacity="1.000000" stroke="none" 
	d="
M308.055176,250.883362 
	C306.194794,244.195755 304.435150,237.291000 302.675476,230.386246 
	C302.500092,230.408966 302.324677,230.431702 302.149292,230.454437 
	C302.029694,232.787186 301.910095,235.119919 301.790497,237.452667 
	C301.594788,237.440933 301.399078,237.429184 301.203369,237.417435 
	C301.203369,234.626801 301.203369,231.836151 301.203369,228.684647 
	C302.161987,228.507172 303.361572,228.285080 303.876862,228.189667 
	C305.612457,235.344818 307.296021,242.285416 308.911682,249.624908 
	C308.537079,250.155029 308.307770,250.369171 308.055176,250.883362 
z"/>
<path fill="#0A0A0A" opacity="1.000000" stroke="none" 
	d="
M83.114403,179.392578 
	C90.729012,176.674210 98.453499,174.169922 106.177986,171.665634 
	C106.306221,172.026276 106.434456,172.386917 106.562691,172.747559 
	C99.290382,175.490005 92.018074,178.232452 84.363113,180.903473 
	C83.728394,180.423569 83.476334,180.015121 83.114403,179.392578 
z"/>
<path fill="#111010" opacity="1.000000" stroke="none" 
	d="
M218.703262,227.049088 
	C216.626984,235.845688 214.193954,244.766403 211.403244,253.893158 
	C210.942764,253.792831 210.780930,253.521729 210.359360,253.157822 
	C211.998718,244.919022 213.838806,236.808258 215.678894,228.697510 
	C215.231598,228.619034 214.784317,228.540573 214.337036,228.462097 
	C215.673523,228.032471 217.010010,227.602844 218.703262,227.049088 
z"/>
<path fill="#FFFFFF" opacity="1.000000" stroke="none" 
	d="
M167.422272,336.793518 
	C162.662766,333.095428 158.894958,328.655029 157.122482,322.255737 
	C157.386002,321.531311 157.499619,321.384399 157.613235,321.237518 
	C161.084122,325.891449 164.555008,330.545349 167.883987,335.766602 
	C167.635468,336.487122 167.528870,336.640320 167.422272,336.793518 
z"/>
<path fill="#0C0B0C" opacity="1.000000" stroke="none" 
	d="
M423.816223,205.170898 
	C415.881836,202.656281 408.710602,200.077637 401.539398,197.498978 
	C401.616882,197.216278 401.694366,196.933563 401.771851,196.650864 
	C409.773315,199.187653 417.774780,201.724457 425.939941,204.608429 
	C425.595581,205.006027 425.087524,205.056442 423.816223,205.170898 
z"/>
<path fill="#FFFFFF" opacity="1.000000" stroke="none" 
	d="
M375.976746,317.978271 
	C374.744934,311.815460 373.521545,306.087982 372.298126,300.360474 
	C376.366364,306.883026 377.649078,313.975586 376.316803,321.574219 
	C376.206238,320.520660 376.095673,319.467133 375.976746,317.978271 
z"/>
<path fill="#0D0C0C" opacity="1.000000" stroke="none" 
	d="
M437.002045,180.614532 
	C431.092133,178.993011 425.222046,176.893173 419.351959,174.793320 
	C419.444305,174.475693 419.536682,174.158081 419.629028,173.840454 
	C425.237885,175.541260 430.846710,177.242050 436.785095,179.060944 
	C437.090424,179.498077 437.066162,179.817139 437.002045,180.614532 
z"/>
<path fill="#0B0B0B" opacity="1.000000" stroke="none" 
	d="
M157.008102,289.487000 
	C154.056549,289.803253 151.102921,289.803253 146.651443,289.803253 
	C149.544632,287.362274 151.426987,285.774139 153.757431,284.285034 
	C154.496933,284.599548 154.788345,284.815063 155.079742,285.030579 
	C154.038116,286.062744 152.996490,287.094910 151.954880,288.127075 
	C152.055389,288.422638 152.155914,288.718170 152.256439,289.013733 
	C153.576431,288.679840 154.896439,288.345947 156.589691,287.959229 
	C156.977310,288.327789 156.991669,288.749268 157.008102,289.487000 
z"/>
<path fill="#0B0B0B" opacity="1.000000" stroke="none" 
	d="
M266.503967,44.004856 
	C265.464142,40.273144 264.744812,36.536770 264.094910,32.390167 
	C264.632812,31.713131 265.101288,31.446329 265.828613,31.104103 
	C266.728119,35.058697 267.368744,39.088715 268.057678,43.538254 
	C267.678802,43.971916 267.251648,43.986053 266.503967,44.004856 
z"/>
<path fill="#FFFFFF" opacity="1.000000" stroke="none" 
	d="
M142.009827,310.452209 
	C143.109360,307.057312 144.200150,304.101105 145.290939,301.144867 
	C145.567108,301.220642 145.843277,301.296387 146.119446,301.372162 
	C144.853745,307.077972 143.588058,312.783813 142.001099,319.937866 
	C142.001099,315.998077 142.001099,313.444489 142.009827,310.452209 
z"/>
<path fill="#0D0D0D" opacity="1.000000" stroke="none" 
	d="
M254.519501,30.994781 
	C254.222809,35.118195 253.604736,39.246300 252.894287,43.739986 
	C252.530075,44.092175 252.258224,44.078789 251.578873,44.040428 
	C251.776871,39.972561 252.382370,35.929676 252.950439,31.460690 
	C253.341370,31.022888 253.769730,31.011181 254.519501,30.994781 
z"/>
<path fill="#0B0B0B" opacity="1.000000" stroke="none" 
	d="
M367.973480,196.804413 
	C365.436340,194.055222 362.918213,190.997818 360.400055,187.940414 
	C360.929047,187.563156 361.458038,187.185898 361.987000,186.808640 
	C363.916016,189.618668 365.845001,192.428680 367.904755,195.559402 
	C368.021149,196.085480 368.006805,196.290833 367.973480,196.804413 
z"/>
<path fill="#0C0B0C" opacity="1.000000" stroke="none" 
	d="
M146.098434,222.091949 
	C144.308289,223.732086 142.518143,225.372238 140.384552,227.057205 
	C140.027695,226.895859 140.014328,226.689682 139.978760,226.174408 
	C141.664246,224.376007 143.371933,222.886703 145.465668,221.498688 
	C145.933960,221.763992 146.016205,221.927963 146.098434,222.091949 
z"/>
<path fill="#0E0D0D" opacity="1.000000" stroke="none" 
	d="
M150.096649,239.090073 
	C149.617279,240.014862 149.137894,240.939651 148.354691,241.988647 
	C147.835251,241.815994 147.619644,241.519119 147.158813,241.090668 
	C147.634125,240.116241 148.354645,239.273376 149.453735,238.526428 
	C149.920425,238.778259 150.008530,238.934174 150.096649,239.090073 
z"/>
<path fill="#FFFFFF" opacity="1.000000" stroke="none" 
	d="
M157.086761,321.885864 
	C156.143417,320.639587 155.385712,319.185699 154.627991,317.731812 
	C154.945084,317.568176 155.262177,317.404541 155.579269,317.240936 
	C156.114075,318.393829 156.648880,319.546692 157.398468,320.968567 
	C157.499619,321.384399 157.386002,321.531311 157.086761,321.885864 
z"/>
<path fill="#FFFFFF" opacity="1.000000" stroke="none" 
	d="
M30.428637,123.395889 
	C29.879511,123.105125 29.563511,122.660904 29.247513,122.216682 
	C29.796179,122.253647 30.344841,122.290611 30.995152,122.610115 
	C30.951788,123.009239 30.806776,123.125832 30.428637,123.395889 
z"/>
<path fill="#FFFFFF" opacity="1.000000" stroke="none" 
	d="
M490.117584,122.075851 
	C490.481415,121.651848 491.063141,121.409515 491.644867,121.167175 
	C491.519836,121.513580 491.394806,121.859978 491.035614,122.393768 
	C490.646149,122.473274 490.490814,122.365395 490.117584,122.075851 
z"/>
<path fill="#FFFFFF" opacity="1.000000" stroke="none" 
	d="
M167.921600,336.119171 
	C168.341553,336.479736 168.581970,337.055054 168.822388,337.630402 
	C168.481995,337.503174 168.141602,337.375977 167.611725,337.021149 
	C167.528870,336.640320 167.635468,336.487122 167.921600,336.119171 
z"/>
<path fill="#020202" opacity="1.000000" stroke="none" 
	d="
M336.321960,258.707275 
	C341.081757,264.402100 345.562744,269.842804 349.418030,274.523712 
	C344.845245,279.377533 340.603912,283.879517 336.362549,288.381531 
	C335.798248,288.286011 335.233948,288.190491 334.669647,288.094971 
	C333.091431,275.474609 331.513214,262.854248 329.934998,250.233887 
	C330.217224,250.121490 330.499420,250.009094 330.781616,249.896713 
	C332.535461,252.748840 334.289307,255.600983 336.321960,258.707275 
z"/>
<path fill="#000000" opacity="1.000000" stroke="none" 
	d="
M376.476807,266.434204 
	C375.258972,266.464081 373.535522,265.930206 373.340149,266.271423 
	C371.139099,270.114838 369.172729,274.092682 366.406219,279.466156 
	C364.478790,272.064911 362.755035,265.445679 361.442810,258.349274 
	C362.927460,255.904037 364.000580,253.935959 365.073669,251.967865 
	C369.044342,256.381561 373.014984,260.795258 377.025726,265.571594 
	C376.937500,266.048492 376.809204,266.162689 376.476807,266.434204 
z"/>
<path fill="#0B0B0B" opacity="1.000000" stroke="none" 
	d="
M364.949707,251.645966 
	C364.000580,253.935959 362.927460,255.904037 361.514221,257.940430 
	C361.008423,251.267273 357.998901,245.793350 354.223480,240.343399 
	C349.894592,234.094574 346.430054,227.246948 342.788208,219.923401 
	C343.756226,220.684937 345.014526,221.258911 345.646820,222.237411 
	C351.159546,230.768417 356.540558,239.384430 362.016266,247.939621 
	C362.800629,249.165131 363.881836,250.200638 364.949707,251.645966 
z"/>
<path fill="#0F0E0F" opacity="1.000000" stroke="none" 
	d="
M377.238800,288.458984 
	C373.326172,292.223419 369.362701,290.913086 364.514893,288.048370 
	C367.795013,288.477386 370.174927,288.788696 372.673737,289.115509 
	C370.626526,285.704071 368.787964,282.640381 366.949402,279.576660 
	C367.207672,279.423981 367.465942,279.271271 367.724213,279.118591 
	C370.720612,282.131989 373.717010,285.145416 376.952881,288.364319 
	C377.192352,288.569794 377.206512,288.486359 377.238800,288.458984 
z"/>
<path fill="#0C0B0B" opacity="1.000000" stroke="none" 
	d="
M336.240295,222.691650 
	C332.897125,218.642212 333.967865,214.569412 334.936462,210.497101 
	C337.215942,214.460358 341.034485,218.233444 336.240295,222.691650 
z"/>
<path fill="#111010" opacity="1.000000" stroke="none" 
	d="
M358.659149,206.884644 
	C357.248169,205.811432 355.837219,204.738220 354.426270,203.665009 
	C354.669830,203.346283 354.913422,203.027557 355.157013,202.708832 
	C356.365997,203.569763 357.575012,204.430710 358.798401,205.839539 
	C358.761566,206.553177 358.710358,206.718918 358.659149,206.884644 
z"/>
<path fill="#111010" opacity="1.000000" stroke="none" 
	d="
M360.072327,206.921066 
	C361.330933,207.714645 362.589569,208.508224 363.781982,209.803955 
	C363.609589,210.448883 363.503357,210.591675 363.397095,210.734467 
	C362.105225,209.813934 360.813354,208.893387 359.577087,207.582611 
	C359.779205,207.101929 359.925751,207.011505 360.072327,206.921066 
z"/>
<path fill="#111010" opacity="1.000000" stroke="none" 
	d="
M365.925140,212.083008 
	C365.213989,211.788406 364.502808,211.493820 363.594360,210.966858 
	C363.503357,210.591675 363.609589,210.448883 363.899017,210.111954 
	C364.827454,210.248108 365.572662,210.578415 366.316284,211.319946 
	C366.184875,211.848434 366.055023,211.965714 365.925140,212.083008 
z"/>
<path fill="#111010" opacity="1.000000" stroke="none" 
	d="
M366.522095,211.570312 
	C367.449585,212.053391 368.169708,212.697296 368.889832,213.341217 
	C368.753265,213.567657 368.616669,213.794098 368.480072,214.020538 
	C367.704376,213.579544 366.928680,213.138550 366.039062,212.390274 
	C366.055023,211.965714 366.184875,211.848434 366.522095,211.570312 
z"/>
<path fill="#111010" opacity="1.000000" stroke="none" 
	d="
M358.940826,206.160950 
	C359.356079,206.098724 359.643311,206.263016 360.001404,206.674194 
	C359.925751,207.011505 359.779205,207.101929 359.391022,207.283722 
	C359.149384,207.375092 358.775757,207.091080 358.717468,206.987854 
	C358.710358,206.718918 358.761566,206.553177 358.940826,206.160950 
z"/>
<path fill="#030303" opacity="1.000000" stroke="none" 
	d="
M155.401093,284.884888 
	C154.788345,284.815063 154.496933,284.599548 154.077759,284.140350 
	C151.200165,279.522827 148.450348,275.149048 146.174438,271.529053 
	C154.044022,261.630859 162.148682,251.436996 170.884399,241.120483 
	C171.723953,241.014084 171.932419,241.030319 172.140884,241.046539 
	C169.407059,250.042175 167.014053,259.161163 163.818558,267.989685 
	C161.719208,273.789795 158.461441,279.170593 155.401093,284.884888 
z"/>
<path fill="#000000" opacity="1.000000" stroke="none" 
	d="
M175.831635,281.310913 
	C174.769012,280.000275 173.946579,278.960724 173.085754,277.872650 
	C172.008713,279.709015 171.256104,280.992218 170.503479,282.275452 
	C169.910995,281.756470 169.318512,281.237518 168.726028,280.718567 
	C175.872833,270.409424 183.019638,260.100281 189.409866,250.882523 
	C187.746170,262.677277 185.885437,275.869019 183.867645,290.174133 
	C180.664581,286.643860 178.368195,284.112915 175.831635,281.310913 
z"/>
<path fill="#0D0C0C" opacity="1.000000" stroke="none" 
	d="
M172.465393,240.914276 
	C171.932419,241.030319 171.723953,241.014084 171.202545,240.976791 
	C173.801132,235.597046 176.756485,230.261490 179.603088,224.868530 
	C180.779007,222.640732 181.721573,220.289749 182.687469,218.175919 
	C182.950745,218.550339 183.619064,219.500809 184.464569,220.703262 
	C180.716583,227.149292 176.753250,233.965668 172.465393,240.914276 
z"/>
<path fill="#0C0B0C" opacity="1.000000" stroke="none" 
	d="
M222.673279,197.077103 
	C222.378189,205.422440 221.331055,213.916351 221.161591,222.427750 
	C221.062836,227.386551 222.369675,232.373337 222.441818,237.465652 
	C221.530090,234.048386 220.618362,230.631134 219.319489,227.131378 
	C219.281754,224.668015 219.709854,222.295563 219.966003,219.904694 
	C220.775208,212.351181 221.520004,204.790756 222.673279,197.077103 
z"/>
<path fill="#1E1D1D" opacity="1.000000" stroke="none" 
	d="
M118.106483,147.985046 
	C124.184654,147.984085 129.779129,147.984085 135.373611,147.984085 
	C135.372284,148.223953 135.370956,148.463806 135.369629,148.703674 
	C127.131569,148.703674 118.893509,148.703674 110.655449,148.703674 
	C110.647179,148.464447 110.638908,148.225220 110.630638,147.985992 
	C112.961357,147.985992 115.292068,147.985992 118.106483,147.985046 
z"/>
<path fill="#0C0B0C" opacity="1.000000" stroke="none" 
	d="
M153.719086,216.607300 
	C151.745163,218.074692 149.771240,219.542084 147.207916,220.921417 
	C146.445908,220.781830 146.273270,220.730286 146.100647,220.678772 
	C148.131561,219.116226 150.162476,217.553680 152.749023,216.131866 
	C153.442825,216.384186 153.580963,216.495743 153.719086,216.607300 
z"/>
<path fill="#0E0D0D" opacity="1.000000" stroke="none" 
	d="
M156.267166,231.398193 
	C157.912109,229.829453 159.557037,228.260696 161.201965,226.691956 
	C161.587357,227.102844 161.972748,227.513733 162.358154,227.924637 
	C160.837555,229.286972 159.316940,230.649307 157.247131,231.866028 
	C156.554337,231.613022 156.410751,231.505600 156.267166,231.398193 
z"/>
<path fill="#0C0B0C" opacity="1.000000" stroke="none" 
	d="
M160.697968,210.611542 
	C159.248901,211.879440 157.799820,213.147339 156.350739,214.415237 
	C156.014389,214.004456 155.678024,213.593674 155.341660,213.182877 
	C156.624802,212.120041 157.907928,211.057190 159.745712,210.136078 
	C160.432892,210.389053 160.565430,210.500290 160.697968,210.611542 
z"/>
<path fill="#0C0B0C" opacity="1.000000" stroke="none" 
	d="
M160.112427,210.098770 
	C160.664978,209.217667 161.405441,208.515594 162.145920,207.813507 
	C162.369202,208.009979 162.592499,208.206436 162.815781,208.402893 
	C162.271942,209.006500 161.728104,209.610107 160.941116,210.412628 
	C160.565430,210.500290 160.432892,210.389053 160.112427,210.098770 
z"/>
<path fill="#0E0D0D" opacity="1.000000" stroke="none" 
	d="
M153.094330,236.087799 
	C152.654755,236.730118 152.215179,237.372452 151.199921,237.922058 
	C150.454239,237.774033 150.284256,237.718735 150.114258,237.663422 
	C150.756714,236.938263 151.399170,236.213120 152.435822,235.555298 
	C152.918121,235.777664 153.006226,235.932724 153.094330,236.087799 
z"/>
<path fill="#0C0B0C" opacity="1.000000" stroke="none" 
	d="
M153.108292,216.092697 
	C153.376221,215.281021 153.823608,214.634201 154.342621,214.051132 
	C154.377487,214.011963 154.953644,214.454620 155.278046,214.673203 
	C154.947632,215.157486 154.617203,215.641769 154.002930,216.366669 
	C153.580963,216.495743 153.442825,216.384186 153.108292,216.092697 
z"/>
<path fill="#0E0D0D" opacity="1.000000" stroke="none" 
	d="
M156.893860,231.904663 
	C156.649933,232.729538 156.210052,233.370178 155.212738,233.893860 
	C154.495682,233.697678 154.336060,233.618423 154.176422,233.539185 
	C154.720749,232.954910 155.265060,232.370636 156.038269,231.592285 
	C156.410751,231.505600 156.554337,231.613022 156.893860,231.904663 
z"/>
<path fill="#0C0B0C" opacity="1.000000" stroke="none" 
	d="
M145.788406,221.332214 
	C145.725082,221.064423 145.956787,220.788010 146.028717,220.733383 
	C146.273270,220.730286 146.445908,220.781830 146.855164,220.963867 
	C146.924561,221.379349 146.757309,221.664322 146.344238,222.020630 
	C146.016205,221.927963 145.933960,221.763992 145.788406,221.332214 
z"/>
<path fill="#0E0D0D" opacity="1.000000" stroke="none" 
	d="
M153.116821,234.660370 
	C153.327011,234.391098 153.537201,234.121826 153.961899,233.695862 
	C154.336060,233.618423 154.495682,233.697678 154.871796,233.933716 
	C154.920303,234.377213 154.752319,234.663925 154.104492,234.889099 
	C153.455353,234.771820 153.286087,234.716095 153.116821,234.660370 
z"/>
<path fill="#0E0D0D" opacity="1.000000" stroke="none" 
	d="
M153.856812,234.960022 
	C153.921906,235.377899 153.754807,235.663269 153.341019,236.018219 
	C153.006226,235.932724 152.918121,235.777664 152.749176,235.367584 
	C152.668320,235.112579 152.932419,234.773544 153.024628,234.716949 
	C153.286087,234.716095 153.455353,234.771820 153.856812,234.960022 
z"/>
<path fill="#0E0D0D" opacity="1.000000" stroke="none" 
	d="
M150.857422,237.961716 
	C150.923584,238.379410 150.756577,238.664703 150.343109,239.020050 
	C150.008530,238.934174 149.920425,238.778259 149.751892,238.366058 
	C149.671463,238.109741 149.933182,237.776230 150.023712,237.719818 
	C150.284256,237.718735 150.454239,237.774033 150.857422,237.961716 
z"/>
<path fill="#060606" opacity="1.000000" stroke="none" 
	d="
M243.990173,169.883026 
	C244.062546,168.814667 244.080902,168.152847 244.239578,167.526581 
	C244.290558,167.325394 244.711777,167.218002 244.234192,167.503021 
	C247.906357,172.898651 251.030533,178.674698 255.281204,183.447495 
	C261.159271,190.047562 261.458405,197.508530 260.474335,205.588669 
	C260.263000,194.761459 254.618622,186.707733 247.798050,179.034454 
	C245.792755,176.778427 245.219910,173.249115 243.990173,169.883026 
z"/>
<path fill="#000000" opacity="1.000000" stroke="none" 
	d="
M283.490479,156.456833 
	C282.773193,156.352661 282.246094,156.092041 281.718964,155.831421 
	C281.913055,155.572876 282.107178,155.314346 282.301300,155.055801 
	C282.821289,155.166931 283.341278,155.278076 283.948242,155.673981 
	C284.035217,155.958740 283.680603,156.300400 283.490479,156.456833 
z"/>
</svg>