<?xml version="1.0" standalone="no"?>
<!DOCTYPE svg PUBLIC "-//W3C//DTD SVG 20010904//EN"
 "http://www.w3.org/TR/2001/REC-SVG-20010904/DTD/svg10.dtd">
<svg version="1.0" xmlns="http://www.w3.org/2000/svg"
 width="527.000000pt" height="492.000000pt" viewBox="0 0 527.000000 492.000000"
 preserveAspectRatio="xMidYMid meet">

<g transform="translate(0.000000,492.000000) scale(0.100000,-0.100000)"
fill="#000000" stroke="none">
<path d="M2627 4854 c-4 -4 -7 -23 -7 -41 0 -19 -7 -79 -17 -133 l-16 -100
-63 0 c-84 0 -254 -34 -362 -71 -214 -75 -380 -179 -555 -348 -169 -163 -270
-308 -348 -499 -78 -190 -64 -172 -128 -172 -69 0 -252 16 -346 31 -131 20
-230 51 -368 116 -76 36 -140 63 -143 61 -5 -5 79 -79 133 -116 85 -59 265
-128 426 -163 53 -11 78 -29 41 -29 -9 0 -102 -20 -207 -45 -106 -24 -237 -51
-292 -60 -55 -9 -104 -17 -110 -19 -5 -2 33 -13 85 -26 153 -38 394 -30 529
18 11 3 13 2 6 -5 -17 -18 -362 -131 -480 -158 -63 -15 -160 -28 -228 -32
-134 -7 -145 -18 -46 -46 99 -28 390 -19 553 17 66 14 121 24 123 22 7 -7
-209 -86 -330 -121 -116 -34 -228 -57 -357 -74 l-65 -8 37 -16 c128 -57 384
-42 667 39 29 8 55 13 57 11 3 -3 -42 -37 -100 -76 -118 -80 -261 -153 -348
-177 -76 -22 -59 -34 48 -34 107 0 156 16 372 122 101 49 186 88 187 86 4 -4
-346 -281 -439 -347 -33 -24 -115 -70 -181 -102 -115 -56 -118 -58 -79 -59
123 -1 390 117 669 295 83 53 186 113 230 134 90 43 251 111 263 111 4 0 -31
-21 -78 -46 -123 -66 -197 -111 -265 -163 -75 -57 -256 -227 -270 -254 -15
-30 -218 -133 -300 -152 -110 -26 -108 -26 -96 -38 8 -8 50 -12 114 -11 83 0
116 5 179 27 125 43 342 157 497 262 79 53 151 99 160 102 9 4 -46 -57 -121
-134 -76 -78 -138 -146 -138 -152 0 -6 -6 -11 -13 -11 -8 0 -22 -10 -33 -21
-10 -12 -55 -49 -99 -83 -121 -93 -117 -88 -65 -80 25 3 76 19 113 34 93 39
290 163 351 222 27 26 53 48 56 48 3 0 19 14 35 30 60 63 57 35 -15 -117 -51
-108 -116 -187 -164 -199 -14 -3 -26 -11 -26 -16 0 -7 23 -8 64 -4 57 6 65 4
70 -12 3 -10 28 -53 55 -96 l50 -78 -18 -47 c-20 -50 -38 -211 -24 -211 4 0
16 45 26 99 27 149 56 156 84 19 8 -40 28 -98 44 -129 30 -56 113 -148 124
-137 8 8 -29 81 -50 98 -24 20 -95 143 -95 164 0 14 13 7 58 -30 31 -27 68
-59 82 -72 41 -39 209 -146 310 -198 l95 -49 -70 -3 c-45 -2 -97 4 -145 17
-41 10 -77 17 -80 14 -11 -11 46 -44 107 -63 77 -24 171 -26 239 -5 58 17 77
18 125 5 l36 -10 7 -533 c3 -292 10 -552 15 -577 5 -25 9 -40 10 -35 0 6 6 71
11 145 11 147 46 369 86 550 26 114 39 147 48 119 7 -19 53 -433 81 -719 13
-129 24 -237 25 -240 6 -14 18 52 19 100 1 30 16 181 35 335 19 154 40 339 46
410 11 126 22 167 33 129 8 -26 53 -260 72 -369 21 -124 45 -338 45 -410 0
-35 4 -55 9 -50 18 20 23 170 22 656 l-2 496 32 7 c52 10 96 7 139 -10 62 -25
199 -16 270 18 111 53 123 81 19 48 -62 -21 -262 -41 -247 -25 4 4 40 22 81
39 131 57 251 137 388 257 42 37 79 65 82 62 10 -9 -49 -117 -103 -188 -64
-84 -54 -111 14 -41 53 55 91 130 112 225 15 64 45 113 60 98 6 -5 23 -81 38
-170 4 -21 11 -35 17 -31 14 8 2 104 -23 186 l-20 66 30 44 c16 24 44 71 61
106 35 70 40 72 126 42 32 -11 72 -20 89 -20 l30 0 -45 29 c-25 15 -62 51 -82
78 -39 54 -101 179 -113 228 -7 28 -6 29 13 15 11 -8 54 -43 94 -78 153 -130
377 -261 472 -275 44 -7 46 1 9 27 -131 94 -445 396 -429 413 4 3 66 -34 139
-83 164 -109 324 -193 444 -233 74 -25 109 -31 175 -31 98 0 128 11 78 29 -17
6 -38 11 -46 11 -30 0 -165 61 -221 99 -31 22 -91 74 -132 116 -41 42 -87 83
-102 91 -16 8 -28 20 -28 27 -1 25 -225 174 -378 251 -137 69 -75 51 118 -34
120 -53 176 -84 325 -184 251 -168 376 -230 526 -261 72 -15 137 -20 126 -9
-3 3 -39 21 -79 38 -40 18 -118 60 -173 95 -105 66 -432 324 -418 328 5 2 59
-19 121 -47 180 -81 324 -120 438 -120 40 0 27 17 -23 29 -27 7 -93 34 -148
61 -107 52 -317 191 -298 197 7 3 47 -7 90 -21 239 -75 515 -88 628 -28 30 16
30 16 -75 29 -58 7 -157 26 -220 42 -144 37 -392 125 -363 129 12 2 77 -6 145
-17 172 -28 281 -34 363 -21 91 14 185 40 185 51 0 5 -27 9 -59 9 -77 0 -304
34 -402 59 -90 24 -332 112 -325 118 2 2 30 0 61 -6 162 -30 362 -22 450 18
l40 18 -40 8 c-51 9 -281 56 -447 91 -71 15 -128 30 -128 34 0 3 42 14 93 24
112 23 240 66 328 113 67 34 215 150 205 160 -3 3 -56 -20 -118 -51 -165 -83
-279 -112 -544 -142 -125 -13 -648 -30 -581 -18 15 3 27 8 27 11 0 12 -111
215 -142 262 -88 129 -208 249 -341 340 -98 67 -250 130 -407 170 -83 21 -156
43 -161 48 -5 5 -12 34 -16 63 -5 40 -3 51 6 46 7 -5 59 -12 117 -17 58 -5
128 -18 157 -28 178 -64 227 -84 291 -122 138 -82 217 -142 314 -243 140 -145
220 -272 300 -471 l21 -50 75 -3 c42 -2 76 0 76 4 0 26 -40 134 -77 209 -113
225 -220 368 -383 508 -178 153 -308 230 -492 291 -119 39 -303 76 -384 76
l-52 0 -11 63 c-6 34 -14 91 -18 127 -6 68 -14 95 -26 84z m-64 -466 c-11 -85
-17 -91 -125 -109 -223 -39 -424 -139 -613 -306 -68 -60 -67 -59 -128 -137
-68 -85 -137 -201 -173 -288 l-28 -68 -145 1 c-89 1 -136 4 -121 9 14 4 47 8
73 9 l48 1 21 53 c110 268 290 490 533 654 192 130 436 220 602 222 l61 1 -5
-42z m377 -201 c116 -31 206 -71 297 -130 190 -126 314 -266 434 -489 l47 -88
-41 -11 c-77 -21 -139 -60 -231 -148 -231 -221 -419 -358 -479 -349 -13 2 -30
18 -42 40 -11 21 -25 38 -31 38 -15 0 -61 51 -73 81 -13 36 -4 64 25 80 14 7
24 20 23 28 -4 40 4 50 60 75 106 47 144 58 189 51 23 -3 42 -10 42 -16 0 -5
-6 -9 -12 -9 -21 0 -161 -87 -151 -93 5 -3 40 14 78 37 39 24 132 82 208 129
76 47 135 87 130 90 -4 3 -57 -26 -117 -64 -60 -38 -114 -69 -120 -69 -6 0
-26 15 -43 33 -37 38 -156 77 -237 77 -25 0 -46 4 -46 10 0 24 -171 42 -185
20 -3 -5 -16 -10 -28 -10 -30 0 -115 -41 -156 -75 -41 -35 -96 -152 -122 -260
-24 -100 -60 -205 -70 -205 -5 0 -41 20 -81 44 -91 56 -254 190 -374 308 -109
107 -129 121 -211 149 l-62 20 41 82 c197 392 536 625 953 655 138 10 273 -1
385 -31z m-322 -1174 c19 -30 32 -59 29 -68 -9 -23 -25 -18 -41 13 -8 15 -35
54 -60 86 -28 37 -46 69 -46 85 1 25 3 24 42 -19 22 -25 56 -68 76 -97z
m-1195 80 c-13 -2 -33 -2 -45 0 -13 2 -3 4 22 4 25 0 35 -2 23 -4z m2480 0
c-13 -2 -33 -2 -45 0 -13 2 -3 4 22 4 25 0 35 -2 23 -4z m-1243 -213 c0 -29
-4 -40 -15 -40 -11 0 -15 11 -15 40 0 29 4 40 15 40 11 0 15 -11 15 -40z
m1128 14 c12 -4 22 -10 22 -15 0 -15 -37 -10 -50 6 -13 16 -8 18 28 9z m-374
-150 c9 -23 7 -84 -2 -84 -18 0 -32 26 -32 62 0 39 22 54 34 22z m-1690 -376
c-7 -56 -49 -189 -82 -258 -38 -77 -60 -78 -101 -7 -17 30 -31 61 -31 70 0 8
29 45 65 82 36 37 65 70 65 72 0 2 14 22 32 44 42 52 57 51 52 -3z m1948 7 c0
-5 -5 -11 -11 -13 -6 -2 -11 4 -11 13 0 9 5 15 11 13 6 -2 11 -8 11 -13z
m-1334 -24 c6 -16 7 -33 3 -37 -4 -5 -4 -74 0 -154 23 -484 23 -480 6 -480
-11 0 -17 8 -17 23 0 18 -11 25 -69 44 -113 36 -222 94 -274 146 l-48 47 34
48 c43 58 76 123 117 230 43 111 60 110 60 -4 0 -86 26 -297 40 -322 4 -8 10
19 13 60 6 66 85 390 101 417 12 19 24 12 34 -18z m661 -68 c57 -246 70 -324
64 -392 -4 -48 -3 -63 6 -56 6 6 13 35 16 64 3 30 10 72 15 95 6 23 13 107 17
189 7 175 18 187 59 65 27 -84 86 -210 130 -280 l24 -38 -62 -46 c-93 -68
-327 -178 -344 -161 -4 4 -7 131 -8 284 -1 247 1 283 17 326 10 26 24 47 31
47 7 0 21 -40 35 -97z m431 -15 c36 -45 73 -95 83 -110 l17 -29 -63 -64 c-34
-36 -68 -65 -74 -65 -6 0 -17 55 -27 133 -27 217 -27 217 -13 217 6 0 41 -37
77 -82z m319 27 c22 -24 41 -47 41 -50 0 -26 -73 -125 -91 -125 -7 0 -31 68
-43 121 -3 14 -1 42 5 62 14 50 36 48 88 -8z m-1829 16 c7 -14 4 -58 -10 -156
-11 -75 -20 -140 -20 -146 0 -21 -38 -6 -72 29 -65 66 -64 72 16 189 38 57 71
103 73 103 1 0 7 -9 13 -19z m1700 -257 c22 -15 40 -32 40 -38 0 -6 -14 -24
-30 -40 -17 -16 -30 -35 -30 -41 0 -21 -175 -182 -255 -235 -129 -84 -292
-155 -401 -176 l-34 -6 0 65 0 65 48 11 c73 19 230 89 302 135 100 65 205 157
256 225 25 34 50 61 55 61 5 0 27 -12 49 -26z m-1812 -112 c149 -149 333 -261
453 -277 94 -13 89 -8 89 -80 0 -36 -2 -65 -4 -65 -22 0 -259 91 -321 123
-101 53 -217 138 -277 205 -25 29 -51 52 -57 52 -6 0 -11 5 -11 11 0 6 -11 24
-25 41 -14 16 -25 33 -25 36 0 7 60 50 72 51 4 1 51 -43 106 -97z m962 -627
c0 -33 -4 -45 -15 -45 -11 0 -15 12 -15 45 0 33 4 45 15 45 11 0 15 -12 15
-45z m-246 -137 c6 -31 4 -38 -9 -38 -16 0 -20 34 -9 65 8 20 10 18 18 -27z"/>
<path d="M1475 1488 c13 -71 57 -175 93 -223 43 -57 129 -120 187 -136 22 -6
61 -8 88 -5 50 7 153 42 161 55 3 4 -48 7 -112 6 -145 0 -186 16 -276 108 -49
49 -70 82 -97 145 -35 84 -55 107 -44 50z"/>
<path d="M3765 1483 c-10 -41 -68 -142 -110 -191 -21 -24 -65 -57 -99 -75 -59
-31 -66 -32 -179 -32 l-118 0 27 -22 c34 -26 66 -33 163 -33 63 0 85 5 130 28
87 43 175 171 200 290 13 64 13 62 2 62 -5 0 -12 -12 -16 -27z"/>
</g>
</svg>
