<?xml version="1.0" encoding="UTF-8"?>
<svg version="1.1" xmlns="http://www.w3.org/2000/svg" width="278" height="259">
<g transform="translate(138,0)">
<path d="M0 0 C0.66 0 1.32 0 2 0 C2.99 7.425 2.99 7.425 4 15 C6.7225 15.0928125 6.7225 15.0928125 9.5 15.1875 C28.08762382 16.68096815 43.85649727 24.95702119 57 38 C58.36125 39.299375 58.36125 39.299375 59.75 40.625 C60.4925 41.40875 61.235 42.1925 62 43 C62.66708984 43.67482422 62.66708984 43.67482422 63.34765625 44.36328125 C71.20447331 52.80674065 76.02657856 62.98346663 79 74 C83.25242994 73.60615566 87.50115302 73.18065638 91.75 72.75 C93.53083984 72.58564453 93.53083984 72.58564453 95.34765625 72.41796875 C106.26511328 71.28446228 115.84328527 68.67770932 125.2578125 62.953125 C127 62 127 62 129 62 C129 62.66 129 63.32 129 64 C119.64613233 72.34114578 109.08514863 76.51197965 97 79 C100.28893578 79.82382258 103.58155901 80.63189415 106.875 81.4375 C107.7928125 81.66759766 108.710625 81.89769531 109.65625 82.13476562 C115.76213638 83.61823802 121.7323888 84.55109662 128 85 C128 85.66 128 86.32 128 87 C120.73973247 89.17808026 113.54673035 89.59722507 106 90 C108.39460588 90.81627446 110.79056526 91.62811645 113.1875 92.4375 C113.86103516 92.66759766 114.53457031 92.89769531 115.22851562 93.13476562 C121.36276781 95.19946514 126.8606757 96.14041804 133.3125 96.5625 C135.19388672 96.68818359 135.19388672 96.68818359 137.11328125 96.81640625 C138.06589844 96.87699219 139.01851563 96.93757813 140 97 C140 97.66 140 98.32 140 99 C129.5816802 102.47277327 117.73738966 101.53391281 107 100 C109.41605225 100.81436587 111.83279998 101.62655397 114.25 102.4375 C114.93191406 102.66759766 115.61382812 102.89769531 116.31640625 103.13476562 C122.16803732 105.09477797 127.07678778 106.16238439 133.25 106.5625 C134.51328125 106.64628906 135.7765625 106.73007813 137.078125 106.81640625 C138.04234375 106.87699219 139.0065625 106.93757813 140 107 C140 107.66 140 108.32 140 109 C129.57998538 113.59706527 120.01698244 111.97960703 109.29296875 109.65625 C106.06926325 108.90227754 106.06926325 108.90227754 103 109 C114.4057508 116.26206954 114.4057508 116.26206954 127 121 C127 121.66 127 122.32 127 123 C116.92192511 122.96246527 109.04012055 120.03841451 100 116 C100 116.33 100 116.66 100 117 C109.29636088 125.37975194 119.22095109 132.6296815 131 137 C131 137.66 131 138.32 131 139 C116.55696339 136.8591074 105.18715035 129.93545115 93.046875 122.28320312 C90.344825 120.58926529 87.61369526 118.94638069 84.875 117.3125 C84.10929688 116.85488281 83.34359375 116.39726563 82.5546875 115.92578125 C82.04164063 115.62027344 81.52859375 115.31476563 81 115 C81.4846875 115.3403125 81.969375 115.680625 82.46875 116.03125 C86.25847643 118.77151373 89.71968276 121.59860566 93 124.9375 C101.58796474 133.67525482 110.35336807 141.3863348 123 143 C123 143.66 123 144.32 123 145 C105.06848499 146.02628703 91.40944279 137.8296974 77 128 C87.34132716 138.829672 87.34132716 138.829672 99.3046875 147.765625 C99.86414063 148.17296875 100.42359375 148.5803125 101 149 C101 149.66 101 150.32 101 151 C90.22751298 149.38916082 80.68963326 142.41561982 72.328125 135.8203125 C70.14695803 133.99072218 70.14695803 133.99072218 68 133 C69.04959944 134.92376152 70.11528137 136.83875314 71.1875 138.75 C71.77917969 139.81734375 72.37085938 140.8846875 72.98046875 141.984375 C75.02782918 145.04155537 77.10691862 146.78147127 80 149 C80 149.66 80 150.32 80 151 C79.06027344 150.7834375 79.06027344 150.7834375 78.1015625 150.5625 C77.28429687 150.376875 76.46703125 150.19125 75.625 150 C74.81289062 149.814375 74.00078125 149.62875 73.1640625 149.4375 C71.04125049 148.93394761 71.04125049 148.93394761 69 149 C67.93631851 150.71571224 66.89971828 152.44823601 65.875 154.1875 C65.29492188 155.15042969 64.71484375 156.11335937 64.1171875 157.10546875 C62.68237986 159.92506176 62.68237986 159.92506176 63.8125 162.5625 C64.204375 163.366875 64.59625 164.17125 65 165 C65.1953125 167.45703125 65.1953125 167.45703125 65.125 169.8125 C65.10695312 170.60269531 65.08890625 171.39289063 65.0703125 172.20703125 C65.04710937 172.79871094 65.02390625 173.39039063 65 174 C64.34 174 63.68 174 63 174 C62.34 170.7 61.68 167.4 61 164 C59.31988492 165.68011508 58.97772905 168.01909293 58.25 170.25 C56.52578742 175.07779522 55.05534897 177.88050079 51 181 C50.01 181.33 49.02 181.66 48 182 C49.37626099 177.98590546 51.34304697 175.27690874 54 172 C54 171.34 54 170.68 54 170 C53.41734375 170.49628906 52.8346875 170.99257812 52.234375 171.50390625 C45.25781833 177.28479519 37.68584593 183.10471802 29 186 C34.60461531 185.57910004 39.72086547 185.08386889 45 183 C44 186 44 186 41.9609375 187.16796875 C34.56123101 190.08537569 29.52352763 191.05007877 22 188 C19.88856844 188.40131995 19.88856844 188.40131995 18 189 C17.98969254 189.64622314 17.97938507 190.29244629 17.96876526 190.95825195 C17.86026736 197.70712521 17.74570686 204.45587656 17.62768555 211.20458984 C17.58447496 213.72051432 17.54279056 216.23646551 17.50268555 218.75244141 C17.44464567 222.37670934 17.38104947 226.00084456 17.31640625 229.625 C17.29969376 230.74302002 17.28298126 231.86104004 17.26576233 233.01293945 C17.15779719 238.7534905 16.84544725 244.31955726 16 250 C15.01 250.33 14.02 250.66 13 251 C13.01595215 250.4006665 13.0319043 249.80133301 13.04833984 249.18383789 C13.14334084 242.80704992 12.58744714 236.73505077 11.625 230.4375 C11.49867188 229.55642578 11.37234375 228.67535156 11.2421875 227.76757812 C10.40702844 222.10937551 9.30049089 216.56949359 8 211 C7.30305727 216.0675224 6.60943013 221.13548431 5.91870117 226.20385742 C5.68390639 227.92337917 5.44824956 229.64278346 5.21166992 231.36206055 C3.94659522 240.55992923 2.68825702 249.73660906 2 259 C1.34 259 0.68 259 0 259 C-0.11069824 258.01306152 -0.22139648 257.02612305 -0.33544922 256.00927734 C-0.75455975 252.27775477 -1.17646079 248.54655171 -1.59912109 244.81542969 C-1.78019746 243.2136249 -1.96055958 241.61173918 -2.14013672 240.00976562 C-3.26514483 229.97896704 -4.50122368 219.98310095 -6 210 C-8.82074916 223.63818527 -10.86677649 237.11801204 -12 251 C-12.66 251 -13.32 251 -14 251 C-15.05907212 244.11053431 -15.12918 237.36841669 -15.09765625 230.40625 C-15.0962413 229.21898315 -15.09482635 228.03171631 -15.09336853 226.80847168 C-15.08779811 223.03895484 -15.07525105 219.26949871 -15.0625 215.5 C-15.05748118 212.93489669 -15.05291894 210.36979245 -15.04882812 207.8046875 C-15.03783836 201.53643783 -15.02112981 195.26822325 -15 189 C-19.20644195 188.01146435 -19.20644195 188.01146435 -23.25 189 C-28.65305108 190.96474585 -34.27188282 189.67890318 -39.5 187.625 C-42 186 -42 186 -44 183 C-43.46890625 183.14308594 -42.9378125 183.28617188 -42.390625 183.43359375 C-39.52688769 184.1120936 -36.65452348 184.58893639 -33.75 185.0625 C-32.67234375 185.23910156 -31.5946875 185.41570312 -30.484375 185.59765625 C-29.66453125 185.73042969 -28.8446875 185.86320313 -28 186 C-29.43279297 185.30777344 -29.43279297 185.30777344 -30.89453125 184.6015625 C-39.89137957 180.11188901 -46.92714716 175.17578417 -54 168 C-52.32717026 171.47320661 -50.65345717 174.68496298 -48.3125 177.75 C-46 181 -46 181 -46 183 C-51.488075 180.84397053 -53.83799059 176.59454593 -56.1875 171.4375 C-57.43105203 168.57881664 -58.23469046 166.06123815 -59 163 C-59.66 166.63 -60.32 170.26 -61 174 C-61.66 174 -62.32 174 -63 174 C-63.08867802 169.65477684 -63.15928284 165.69839401 -62.1875 161.4375 C-61.92045242 156.54162776 -64.13529699 153.81629985 -67 150 C-69.31 150.33 -71.62 150.66 -74 151 C-73 148 -73 148 -70.67578125 146.76171875 C-67.15982805 144.44683569 -65.87551565 141.52762495 -64.1875 137.8125 C-63.72053711 136.83120117 -63.72053711 136.83120117 -63.24414062 135.83007812 C-62.48314436 134.22613216 -61.73976848 132.61384652 -61 131 C-61.86625 131.969375 -62.7325 132.93875 -63.625 133.9375 C-70.905499 141.20323125 -81.83915668 148.64444104 -92 151 C-92.99 150.67 -93.98 150.34 -95 150 C-94.36835937 149.51273438 -93.73671875 149.02546875 -93.0859375 148.5234375 C-84.76824573 141.93160685 -77.39778716 134.59218157 -70 127 C-70.59683594 127.40089844 -71.19367188 127.80179687 -71.80859375 128.21484375 C-77.64568924 132.03974584 -83.60032337 135.5179585 -89.75 138.8125 C-90.45825928 139.19720459 -91.16651855 139.58190918 -91.89624023 139.97827148 C-98.69918454 143.57421574 -104.65785243 145.27318376 -112.4375 145.125 C-113.67371094 145.10695312 -114.90992188 145.08890625 -116.18359375 145.0703125 C-117.11300781 145.04710937 -118.04242188 145.02390625 -119 145 C-119 144.34 -119 143.68 -119 143 C-118.23816406 142.85304687 -117.47632812 142.70609375 -116.69140625 142.5546875 C-104.69284887 139.94825931 -97.80708611 134.01746466 -89.11328125 125.76928711 C-84.9524442 121.82801178 -80.70225877 118.29158114 -76 115 C-82.53002084 118.40335832 -88.79814008 122.1025063 -95 126.0625 C-104.76896351 132.24496794 -116.077826 139 -128 139 C-128 138.34 -128 137.68 -128 137 C-127.47792969 136.79246094 -126.95585938 136.58492187 -126.41796875 136.37109375 C-114.28899853 131.29434439 -103.12258208 123.482684 -94 114 C-95.55460937 114.74056641 -95.55460937 114.74056641 -97.140625 115.49609375 C-98.5103271 116.14341872 -99.88012375 116.79054366 -101.25 117.4375 C-101.93191406 117.76298828 -102.61382812 118.08847656 -103.31640625 118.42382812 C-103.98027344 118.73642578 -104.64414063 119.04902344 -105.328125 119.37109375 C-105.9355957 119.65911865 -106.54306641 119.94714355 -107.16894531 120.24389648 C-111.25106522 121.92953987 -114.84724313 122.11035605 -119.25 122.0625 C-120.32765625 122.05347656 -121.4053125 122.04445313 -122.515625 122.03515625 C-123.74539062 122.01775391 -123.74539062 122.01775391 -125 122 C-125 121.34 -125 120.68 -125 120 C-123.88625 119.773125 -122.7725 119.54625 -121.625 119.3125 C-114.06670535 117.42292634 -107.30992308 113.4833664 -101 109 C-101.71285156 109.13277344 -102.42570312 109.26554687 -103.16015625 109.40234375 C-127.62477972 113.91331739 -127.62477972 113.91331739 -137 110 C-137.33 109.01 -137.66 108.02 -138 107 C-137.22398437 106.97421875 -136.44796875 106.9484375 -135.6484375 106.921875 C-125.79509382 106.40451567 -115.77137011 104.78243407 -107 100 C-108.48693359 100.24169922 -108.48693359 100.24169922 -110.00390625 100.48828125 C-113.97858497 101.05295147 -117.92656156 101.19134558 -121.9375 101.1875 C-122.63681641 101.18814453 -123.33613281 101.18878906 -124.05664062 101.18945312 C-129.03654741 101.13840096 -133.29181404 100.56939532 -138 99 C-138 98.34 -138 97.68 -138 97 C-137.18660156 96.98582031 -136.37320313 96.97164063 -135.53515625 96.95703125 C-124.33408786 96.49084505 -114.57608898 93.52536299 -104 90 C-105.485 89.92652344 -105.485 89.92652344 -107 89.8515625 C-113.85523329 89.47596893 -120.39631865 89.02153511 -127 87 C-127 86.34 -127 85.68 -127 85 C-126.18660156 84.90203125 -125.37320313 84.8040625 -124.53515625 84.703125 C-114.83775071 83.43777175 -105.48034109 81.36434657 -96 79 C-97.03898437 78.70867187 -98.07796875 78.41734375 -99.1484375 78.1171875 C-110.12360635 74.93569275 -120.09653539 71.66485046 -127 62 C-124.31813768 63.03224535 -121.73182271 64.13206536 -119.15234375 65.40234375 C-106.10048335 71.63488462 -91.43839134 73.89412056 -77 73 C-76.72027344 72.27296875 -76.44054687 71.5459375 -76.15234375 70.796875 C-71.24549574 58.49031086 -65.24524096 48.51081341 -56 39 C-55.15501953 38.06220703 -55.15501953 38.06220703 -54.29296875 37.10546875 C-42.32668126 24.20749951 -25.13596248 17.44493082 -8 15 C-6.02 15 -4.04 15 -2 15 C-1.34 10.05 -0.68 5.1 0 0 Z M-52.26953125 47.75 C-58.9715046 55.48249948 -64.4218111 64.03100294 -67 74 C-65.02 74 -63.04 74 -61 74 C-60.5875 73.17757812 -60.175 72.35515625 -59.75 71.5078125 C-50.40247295 53.43870887 -37.42132383 39.8330499 -17.81396484 33.26806641 C-13.583296 31.99573474 -9.31683823 30.94275777 -5 30 C-4.67 28.35 -4.34 26.7 -4 25 C-22.53245752 24.36378053 -39.98176298 34.37386849 -52.26953125 47.75 Z M6 25 C6.33 26.65 6.66 28.3 7 30 C7.8971875 30.1959375 8.794375 30.391875 9.71875 30.59375 C28.00601892 34.97664916 44.29763495 43.18983046 55.20703125 59.0703125 C58.15099474 63.88071037 60.64148936 68.88095987 63 74 C64.98 74 66.96 74 69 74 C64.06658878 56.5879604 52.93286495 43.00787021 37.49609375 33.90625 C27.38433705 28.39280054 17.60102847 24.58567755 6 25 Z M-44.6875 55.75 C-48.77836165 60.66098666 -52.37439158 66.17011288 -55 72 C-54.67 72.99 -54.34 73.98 -54 75 C-52.88625 75.495 -51.7725 75.99 -50.625 76.5 C-45.90852213 78.6897933 -42.79029303 81.99789983 -39.21826172 85.71313477 C-32.89188873 92.25912795 -26.07757904 97.78561094 -18 102 C-16.3339762 98.36503898 -14.92150605 94.97059058 -14.0625 91.0625 C-12.4807911 84.38561407 -10.00382728 78.71665498 -4 75 C0.81416617 72.86037059 4.82334057 72.74116703 10 73 C10.66 73.33 11.32 73.66 12 74 C13.9349234 74.28866656 15.87297031 74.55660644 17.8125 74.8125 C22.55720148 75.57483813 25.71210907 76.25860688 29 80 C29.33 80.99 29.66 81.98 30 83 C29.34 83 28.68 83 28 83 C28 82.34 28 81.68 28 81 C26.58194169 81.28482368 25.16559621 81.57818144 23.75 81.875 C22.96109375 82.03742188 22.1721875 82.19984375 21.359375 82.3671875 C17.70236737 83.34804054 15.55699581 84.26396983 13.25 87.3125 C11.50418001 91.03374698 11.50418001 91.03374698 12 95 C14.14281784 97.55325808 16.50642661 99.79267865 19 102 C29.8206385 97.54444297 38.30754513 88.86122198 46.36328125 80.5859375 C49.78944961 77.26607031 53.63372271 75.72333996 58 74 C54.1945573 65.31463665 49.74862238 58.65601693 43 52 C42.36191406 51.35160156 41.72382813 50.70320313 41.06640625 50.03515625 C29.74498904 39.27863304 14.03794356 34.57858166 -1.29296875 34.71875 C-18.37259692 36.01457005 -33.01207563 43.21455553 -44.6875 55.75 Z M99 88 C103 89 103 89 103 89 Z M42 116 C43 119 43 119 43 119 Z M-50 134 C-52.97 137.3 -55.94 140.6 -59 144 C-57.59624169 147.54321888 -57.59624169 147.54321888 -56 151 C-55.34 151 -54.68 151 -54 151 C-53.13227971 148.92227529 -52.28126381 146.83756823 -51.4375 144.75 C-50.96183594 143.58984375 -50.48617187 142.4296875 -49.99609375 141.234375 C-48.66094002 137.89046161 -48.66094002 137.89046161 -50 134 Z M18 135 C17.17777446 139.29605732 16.88229205 143.33966603 16.90234375 147.7109375 C16.90556641 148.95488281 16.90878906 150.19882813 16.91210938 151.48046875 C16.92048828 152.76566406 16.92886719 154.05085938 16.9375 155.375 C16.94201172 156.68339844 16.94652344 157.99179688 16.95117188 159.33984375 C16.96292406 162.55994281 16.97935457 165.7799477 17 169 C18.92718407 168.21436993 20.85263513 167.42448781 22.77734375 166.6328125 C23.84976318 166.19340332 24.92218262 165.75399414 26.02709961 165.30126953 C30.68172877 163.26388976 34.56987295 160.81125228 38 157 C37.39671875 156.31550781 36.7934375 155.63101563 36.171875 154.92578125 C33.82487875 151.76409026 32.59241012 148.87912784 31.25 145.1875 C30.82203125 144.02605469 30.3940625 142.86460937 29.953125 141.66796875 C29.63859375 140.78753906 29.3240625 139.90710938 29 139 C28.67 139 28.34 139 28 139 C27.95101562 139.96679688 27.90203125 140.93359375 27.8515625 141.9296875 C27.41970801 149.44991228 26.78046944 156.65340279 25 164 C24.34 164 23.68 164 23 164 C23.19207031 163.33613281 23.38414062 162.67226562 23.58203125 161.98828125 C24.11218078 158.19795986 23.4577462 154.88606568 22.6875 151.1875 C22.47710083 150.12499023 22.47710083 150.12499023 22.26245117 149.04101562 C21.31452775 144.32255996 20.25834263 139.64618819 19 135 C18.67 135 18.34 135 18 135 Z M40 137 C40.11409682 139.10478604 40.24165361 141.20884577 40.375 143.3125 C40.44460937 144.48425781 40.51421875 145.65601563 40.5859375 146.86328125 C40.78613747 150.15699887 40.78613747 150.15699887 43 153 C44.65 151.35 46.3 149.7 48 148 C46.5129879 143.40378078 44.20187872 140.53027653 41 137 C40.67 137 40.34 137 40 137 Z M57 137 C55.72648692 139.54702616 56.19808075 140.4282945 56.9375 143.125 C57.13214844 143.84945312 57.32679688 144.57390625 57.52734375 145.3203125 C57.68332031 145.87460938 57.83929688 146.42890625 58 147 C59.80627247 145.42932829 60.90943569 144.20700414 61.875 142 C62.22313233 139.90331366 62.22313233 139.90331366 60.6875 138.25 C59.0821538 136.80159082 59.0821538 136.80159082 57 137 Z M-39 138 C-40.05654417 139.47506444 -41.0707001 140.98064696 -42.0625 142.5 C-42.88427734 143.75296875 -42.88427734 143.75296875 -43.72265625 145.03125 C-44.35494141 146.00578125 -44.35494141 146.00578125 -45 147 C-43.61410019 150.09162264 -42.50816459 151.49183541 -40 154 C-39.34 148.72 -38.68 143.44 -38 138 C-38.33 138 -38.66 138 -39 138 Z M-17 135 C-21.51886978 149.47873501 -21.51886978 149.47873501 -21 164 C-21.66 163.67 -22.32 163.34 -23 163 C-25.17807795 155.44078828 -25.57686087 147.82807399 -26 140 C-27.95138328 142.92707492 -29.45288376 145.84388287 -31 149 C-32.54711624 152.15611713 -34.04861672 155.07292508 -36 158 C-29.24077657 162.9670051 -22.97694947 165.67627105 -15 169 C-15 158.11 -15 147.22 -15 136 C-15.66 135.67 -16.32 135.34 -17 135 Z M51 150 C50.38125 150.74443359 50.38125 150.74443359 49.75 151.50390625 C40.35887809 162.55105188 30.36597677 168.53210041 17 174 C17 175.65 17 177.3 17 179 C32.79676284 176.36720619 45.11984416 167.30112118 55 155 C53.6910428 151.87802522 53.6910428 151.87802522 51 150 Z M-53 154 C-47.62728327 166.2332627 -33.58342956 173.38081039 -21.75 178 C-18.46794753 179.37935458 -18.46794753 179.37935458 -15 180 C-15 177.69 -15 175.38 -15 173 C-16.10794922 172.68869141 -16.10794922 172.68869141 -17.23828125 172.37109375 C-28.96222108 168.8107105 -38.38641716 162.71374078 -47 154 C-47.33 153.34 -47.66 152.68 -48 152 C-50.32357511 151.81509993 -50.32357511 151.81509993 -53 154 Z " />
</g>
</svg>
